{"glyphs":{"0":{"ha":796,"x_min":-10,"x_max":782,"o":"m 567 978 q 684 896 638 950 q 751 779 731 842 q 777 640 772 717 q 774 496 782 563 q 751 360 767 429 q 683 193 732 271 q 560 72 633 115 q 456 38 513 44 q 347 44 400 32 q 244 82 294 56 q 43 365 101 154 q 40 731 -10 556 q 175 926 74 844 q 404 1010 276 1008 q 567 978 485 1011 m 496 367 q 546 445 533 396 q 551 539 558 494 q 526 632 544 583 q 478 705 508 676 q 409 736 447 733 q 331 703 371 739 q 272 611 289 665 q 270 473 250 546 q 347 358 290 400 q 422 339 381 336 q 496 367 464 342 z "},"1":{"ha":471,"x_min":69,"x_max":438,"o":"m 435 686 q 432 514 433 608 q 434 327 432 468 q 435 140 436 186 q 434 114 433 126 q 433 88 435 101 q 429 63 432 75 q 420 41 426 51 q 403 22 414 31 q 333 -1 376 1 q 260 10 290 -3 q 226 29 236 17 q 214 69 217 42 q 190 364 189 285 q 178 508 190 447 q 128 618 167 568 q 112 637 122 625 q 95 656 101 649 q 82 676 89 664 q 72 697 75 688 q 70 719 69 707 q 76 743 71 731 q 98 776 85 760 q 130 813 111 793 q 157 842 149 832 q 290 964 224 922 q 388 992 353 1003 q 407 982 399 989 q 436 881 435 957 q 435 686 438 843 z "},"2":{"ha":754,"x_min":69,"x_max":750,"o":"m 676 207 q 744 121 739 188 q 708 22 750 46 q 608 1 686 8 q 303 3 456 -12 q 224 19 251 8 q 161 80 185 39 q 133 168 138 121 q 188 349 125 236 q 340 528 243 447 q 398 572 347 533 q 472 635 449 611 q 499 677 490 656 q 500 722 507 699 q 467 760 493 744 q 394 771 439 776 q 315 742 351 764 q 288 720 307 735 q 258 700 269 706 q 192 676 228 681 q 124 688 157 672 q 69 763 72 711 q 70 780 69 772 q 74 794 71 788 q 79 808 76 801 q 87 821 82 814 q 95 832 92 828 q 105 844 99 836 q 114 857 111 853 q 306 974 179 943 q 478 986 396 996 q 631 919 568 976 q 708 774 693 863 q 699 623 722 700 q 617 508 675 546 q 538 460 590 490 q 475 422 486 429 q 403 363 429 394 q 369 285 376 331 q 375 229 364 250 q 385 215 379 219 q 401 208 392 210 q 415 206 410 206 q 433 208 421 206 q 450 210 444 210 q 581 214 450 210 q 676 207 646 217 z "},"3":{"ha":714,"x_min":69,"x_max":713,"o":"m 503 515 q 612 472 561 507 q 682 385 663 436 q 692 222 713 303 q 604 83 671 142 q 413 11 522 13 q 217 72 304 10 q 107 204 147 119 q 103 271 90 233 q 151 318 117 308 q 233 299 188 329 q 264 277 238 296 q 306 250 290 258 q 392 243 344 231 q 456 296 439 256 q 444 370 469 333 q 379 422 419 407 q 329 435 363 428 q 271 453 296 443 q 229 481 246 463 q 213 515 214 494 q 241 565 211 549 q 316 591 271 581 q 376 613 361 601 q 414 679 414 642 q 383 738 414 714 q 317 757 353 761 q 229 724 286 754 q 140 692 174 693 q 101 700 117 690 q 69 760 69 718 q 90 828 69 789 q 156 908 114 874 q 250 960 199 943 q 358 983 301 978 q 466 975 414 989 q 561 935 518 961 q 631 863 604 910 q 661 758 657 817 q 619 608 664 683 q 503 515 574 533 z "},"4":{"ha":819,"x_min":68,"x_max":749,"o":"m 713 465 q 733 453 725 461 q 744 431 742 444 q 748 408 747 417 q 749 383 749 400 q 747 306 749 317 q 725 271 744 281 q 701 264 718 267 q 668 261 690 264 q 636 257 646 258 q 619 67 632 161 q 576 0 613 10 q 525 -6 553 -4 q 474 6 497 -8 q 451 49 451 19 q 455 108 453 56 q 458 210 457 161 q 460 258 460 258 q 214 278 338 272 q 138 286 161 279 q 76 332 93 300 q 69 353 71 342 q 72 378 68 364 q 78 400 75 392 q 90 424 82 408 q 99 444 97 440 q 112 473 104 458 q 126 499 119 488 q 144 526 133 511 q 160 551 154 542 q 179 577 167 560 q 197 601 192 594 q 216 626 201 608 q 235 650 231 644 q 284 715 249 668 q 338 787 319 763 q 388 848 357 811 q 447 915 418 885 q 507 971 476 944 q 528 985 519 981 q 560 989 538 989 q 590 985 581 989 q 631 907 617 974 q 637 864 635 886 q 640 809 639 842 q 642 767 642 776 q 647 468 651 617 q 713 465 692 474 m 468 494 q 471 524 471 506 q 469 560 471 543 q 467 596 468 578 q 465 622 465 614 q 458 636 465 631 q 417 606 439 625 q 388 579 396 588 q 351 538 379 571 q 324 503 324 504 q 315 486 315 493 q 322 476 314 479 q 337 472 329 474 q 357 471 344 471 q 381 469 361 471 q 413 468 400 468 q 441 472 426 468 q 463 483 456 475 q 468 494 465 488 z "},"5":{"ha":690,"x_min":10,"x_max":678,"o":"m 236 747 q 226 714 229 733 q 239 642 222 676 q 293 608 256 607 q 317 610 301 608 q 342 611 333 611 q 367 611 350 611 q 549 558 467 606 q 649 431 625 514 q 660 250 674 349 q 464 31 636 90 q 285 3 385 3 q 222 6 258 3 q 149 17 185 8 q 135 19 144 17 q 119 22 125 21 q 106 26 114 24 q 92 30 97 28 q 78 35 86 32 q 65 42 71 39 q 54 51 60 46 q 44 61 49 56 q 28 163 10 108 q 83 225 43 208 q 124 233 101 232 q 175 231 146 233 q 217 229 204 229 q 281 226 217 229 q 346 229 344 224 q 426 264 404 236 q 443 322 442 285 q 442 350 444 339 q 426 378 438 363 q 247 465 372 454 q 222 468 243 467 q 192 471 201 469 q 163 474 182 472 q 133 480 144 476 q 106 489 121 483 q 79 502 90 494 q 60 518 68 510 q 39 558 46 533 q 31 597 32 583 q 31 647 31 610 q 32 688 32 685 q 30 746 32 707 q 27 810 28 785 q 31 868 26 835 q 46 926 35 901 q 82 965 57 951 q 126 981 107 978 q 182 985 146 983 q 193 985 189 985 q 457 982 325 990 q 523 977 479 981 q 585 972 567 974 q 617 969 607 971 q 638 958 626 967 q 658 933 650 950 q 669 858 678 900 q 622 799 660 815 q 550 786 600 788 q 465 783 522 785 q 381 779 408 781 q 338 779 367 778 q 294 780 310 781 q 262 772 279 779 q 236 747 244 764 z "},"6":{"ha":819,"x_min":-7,"x_max":783,"o":"m 408 639 q 707 500 622 660 q 729 192 783 358 q 697 128 718 160 q 647 72 676 97 q 585 38 617 46 q 394 3 464 3 q 250 24 321 3 q 86 142 149 53 q 10 343 24 231 q 92 668 -7 476 q 194 831 133 751 q 240 885 222 865 q 290 935 258 906 q 354 976 321 964 q 422 982 388 988 q 462 965 444 979 q 485 932 479 951 q 486 921 486 926 q 475 878 488 906 q 407 742 444 808 q 371 686 400 731 q 362 667 369 683 q 347 639 354 651 q 335 625 339 626 q 408 639 365 635 m 521 325 q 512 399 529 363 q 458 453 494 436 q 408 464 436 464 q 308 424 354 463 q 281 352 279 396 q 307 278 282 308 q 362 239 328 251 q 429 234 396 226 q 488 267 463 242 q 521 325 514 292 z "},"7":{"ha":783,"x_min":64,"x_max":756,"o":"m 576 975 q 701 796 756 938 q 638 624 686 758 q 560 417 590 489 q 357 49 472 219 q 251 0 325 0 q 139 8 175 -1 q 118 19 124 13 q 113 29 115 24 q 113 49 111 36 q 115 74 113 61 q 122 98 118 88 q 131 123 125 108 q 140 147 136 138 q 153 171 144 156 q 165 193 161 186 q 178 216 169 200 q 190 238 186 232 q 260 367 214 282 q 314 463 307 451 q 390 597 379 581 q 401 613 393 601 q 415 633 410 625 q 429 656 421 642 q 441 678 438 669 q 447 701 444 688 q 444 719 450 714 q 319 751 428 751 q 138 761 229 753 q 76 788 89 765 q 71 818 72 797 q 115 967 64 933 q 176 986 135 979 q 576 975 378 1017 z "},"8":{"ha":731,"x_min":4,"x_max":717,"o":"m 700 389 q 715 278 714 340 q 697 147 717 201 q 367 3 644 3 q 254 10 304 3 q 154 38 204 18 q 71 97 104 57 q 25 194 38 136 q 33 376 4 290 q 78 457 49 424 q 154 533 128 515 q 72 618 107 557 q 50 726 46 667 q 85 836 54 783 q 164 925 117 889 q 246 965 203 953 q 386 982 304 982 q 510 958 453 982 q 607 888 568 935 q 660 685 676 799 q 628 603 654 640 q 603 572 613 582 q 587 560 599 568 q 571 546 575 551 q 590 534 576 542 q 608 521 603 526 q 700 389 681 454 m 329 801 q 274 753 296 788 q 264 688 253 719 q 317 626 278 646 q 408 627 363 603 q 458 703 454 651 q 422 788 463 754 q 332 803 382 821 q 329 801 331 801 m 453 229 q 481 301 483 260 q 439 364 478 343 q 361 379 407 381 q 357 379 360 379 q 316 370 335 378 q 283 348 297 363 q 263 314 268 333 q 263 237 249 272 q 318 188 278 201 q 367 183 343 181 q 414 198 392 186 q 453 229 436 210 z "},"9":{"ha":790,"x_min":49,"x_max":793,"o":"m 428 978 q 697 853 601 978 q 772 497 793 726 q 628 150 756 314 q 599 113 607 122 q 570 78 592 104 q 534 41 549 53 q 498 13 519 29 q 455 -11 476 -4 q 411 -21 433 -18 q 289 6 353 -25 q 268 22 272 14 q 267 28 267 25 q 281 67 263 43 q 389 217 340 150 q 410 243 397 228 q 432 271 422 258 q 453 297 442 283 q 473 326 464 311 q 489 356 482 342 q 461 342 478 344 q 415 343 444 340 q 383 346 385 346 q 246 363 301 347 q 106 451 154 389 q 82 676 49 526 q 231 921 111 814 q 428 978 296 978 m 528 639 q 515 718 535 693 q 439 758 489 753 q 353 739 389 764 q 312 687 325 721 q 307 622 299 653 q 344 573 314 589 q 413 558 374 557 q 489 581 456 560 q 528 639 522 603 z "},"\u0000":{"ha":0,"x_min":0,"x_max":0,"o":""},"\n":{"ha":0,"x_min":0,"x_max":0,"o":""},"\r":{"ha":0,"x_min":0,"x_max":0,"o":""}," ":{"ha":501,"x_min":0,"x_max":0,"o":""},"!":{"ha":467,"x_min":26,"x_max":449,"o":"m 250 186 q 347 120 308 174 q 383 7 386 67 q 329 -115 379 -69 q 204 -164 275 -164 q 79 -112 128 -162 q 28 13 31 -61 q 41 80 26 46 q 81 139 56 114 q 206 192 132 189 q 238 189 221 193 q 250 186 244 188 m 439 967 q 447 908 446 940 q 446 851 449 875 q 438 788 443 826 q 429 732 432 750 q 413 561 424 675 q 396 390 401 447 q 347 279 389 322 q 238 233 306 236 q 186 242 213 232 q 112 266 146 243 q 58 325 78 289 q 39 400 39 361 q 38 483 38 436 q 38 578 38 531 q 36 661 38 625 q 34 741 36 685 q 31 831 32 797 q 37 912 31 865 q 56 993 43 958 q 157 1076 83 1064 q 292 1082 233 1090 q 439 967 410 1065 z "},"\"":{"ha":378,"x_min":6,"x_max":369,"o":"m 104 1051 q 152 1031 133 1051 q 174 982 171 1011 q 150 815 181 896 q 117 773 140 788 q 64 767 93 758 q 22 800 38 774 q 15 853 6 826 q 35 982 40 915 q 54 1031 32 1010 q 104 1051 76 1051 m 363 982 q 339 815 369 896 q 306 773 329 788 q 253 767 282 758 q 210 800 226 774 q 204 853 194 826 q 224 982 229 915 q 243 1031 221 1010 q 293 1051 265 1051 q 341 1031 322 1051 q 363 982 360 1011 z "},"#":{"ha":914,"x_min":8,"x_max":904,"o":"m 785 425 q 837 410 813 425 q 875 372 861 396 q 890 319 889 347 q 859 245 892 276 q 785 214 826 214 l 714 214 q 709 181 714 211 q 703 133 704 150 q 676 81 699 103 q 626 53 654 60 q 572 53 599 46 q 512 105 531 63 q 499 196 493 147 q 501 205 500 199 q 501 214 501 211 l 436 214 q 438 174 438 186 q 408 91 440 125 q 332 55 375 57 q 258 89 289 53 q 226 174 228 125 q 226 194 226 181 q 225 214 225 207 l 115 214 q 63 228 86 214 q 25 267 39 243 q 10 319 11 290 q 24 372 8 347 q 63 410 39 396 q 115 425 88 425 l 217 425 q 211 532 214 461 l 128 532 q 55 563 85 532 q 22 638 25 593 q 53 711 21 679 q 128 743 86 743 l 203 743 q 202 770 203 751 q 200 797 201 789 q 231 880 199 846 q 306 916 264 914 q 379 882 349 918 q 413 797 410 846 q 413 770 413 789 q 414 743 414 751 l 581 743 q 596 840 593 824 q 644 909 604 886 q 726 922 685 932 q 788 869 768 911 q 800 778 808 826 q 798 767 799 774 q 796 754 797 761 q 794 743 794 747 l 797 743 q 849 728 825 743 q 888 690 874 714 q 903 638 901 665 q 889 585 904 610 q 849 546 874 560 q 797 532 824 532 l 760 532 q 744 425 750 468 l 785 425 m 531 425 q 547 532 542 500 l 422 532 q 425 478 424 514 q 428 425 426 443 l 531 425 z "},"$":{"ha":678,"x_min":31,"x_max":656,"o":"m 638 669 q 621 554 656 603 q 507 482 576 490 q 479 483 504 482 q 339 456 339 492 l 343 440 q 351 429 346 436 q 364 419 360 422 q 411 380 392 399 q 450 336 431 361 q 478 287 469 311 q 488 232 488 263 q 474 169 488 201 q 388 72 446 107 q 386 10 386 51 q 385 -50 386 -31 q 362 -106 385 -83 q 307 -129 339 -128 q 252 -106 276 -131 q 229 -50 228 -82 q 230 -20 229 -37 q 231 14 231 -3 q 231 44 231 31 q 164 61 194 49 q 69 110 96 86 q 38 158 46 131 q 43 213 31 185 q 156 243 65 256 q 183 238 161 243 q 226 231 206 233 q 263 229 247 228 q 289 243 274 239 q 299 264 296 251 q 278 306 303 283 q 269 314 274 310 q 258 321 264 318 q 248 326 253 324 q 236 331 243 328 q 225 336 229 333 q 192 354 214 343 q 161 371 171 365 q 67 463 101 403 q 35 590 32 524 q 100 736 39 671 q 225 808 146 785 q 244 814 232 811 q 247 971 246 868 q 271 1026 249 1004 q 325 1050 293 1049 q 381 1027 357 1051 q 404 971 404 1003 l 401 821 q 511 789 463 814 q 591 735 554 767 q 638 669 628 704 z "},"%":{"ha":1031,"x_min":69,"x_max":961,"o":"m 708 968 q 761 897 750 943 q 750 808 772 850 q 524 149 603 500 q 469 80 513 103 q 379 68 425 57 q 310 122 333 78 q 297 211 288 165 q 549 926 381 575 q 620 980 569 968 q 708 968 671 992 m 919 349 q 819 307 878 307 q 718 349 760 307 q 676 449 676 390 q 718 550 676 508 q 819 592 760 592 q 919 550 878 592 q 961 449 961 508 q 919 349 961 390 m 313 518 q 212 476 271 476 q 111 518 153 476 q 69 619 69 560 q 111 719 69 678 q 212 761 153 761 q 313 719 271 761 q 354 619 354 678 q 313 518 354 560 z "},"&":{"ha":983,"x_min":17,"x_max":917,"o":"m 901 608 q 816 459 850 517 q 726 328 782 401 q 613 203 669 254 q 658 139 628 181 q 696 85 688 97 q 706 17 717 54 q 664 -39 694 -21 q 596 -47 629 -57 q 540 -7 563 -37 q 463 103 514 29 q 415 82 439 90 q 298 51 354 58 q 181 60 242 43 q 81 122 121 76 q 18 285 19 193 q 72 451 17 376 q 144 531 103 493 q 49 689 67 614 q 62 860 28 776 q 174 986 96 944 q 335 1019 244 1026 q 488 956 426 1011 q 551 847 538 910 q 547 721 565 783 q 494 601 529 658 q 414 501 460 543 q 454 439 433 474 q 511 351 481 399 q 547 390 529 369 q 580 428 565 411 q 613 474 594 446 q 640 516 631 501 q 669 563 650 531 q 694 608 688 596 q 722 656 701 619 q 746 700 742 692 q 788 740 761 729 q 840 741 815 750 q 887 714 865 732 q 913 667 908 696 q 901 608 917 638 m 354 251 q 356 252 356 251 q 358 253 357 253 q 319 317 347 271 q 274 388 290 363 q 267 399 271 393 q 203 317 221 361 q 199 269 193 296 q 229 233 206 243 q 258 227 243 228 q 295 232 274 226 q 324 240 317 238 q 354 251 331 243 m 375 785 q 375 801 376 794 q 374 808 375 803 q 372 815 372 813 q 369 819 369 818 q 366 823 368 821 q 363 825 364 825 q 357 828 360 826 q 350 832 353 831 q 342 833 347 832 q 296 839 314 842 q 226 785 242 833 q 244 690 211 738 q 293 636 261 665 q 346 704 324 665 q 364 742 360 728 q 372 768 367 747 q 375 785 375 778 z "},"'":{"ha":192,"x_min":7,"x_max":182,"o":"m 175 983 q 151 815 182 896 q 118 774 142 788 q 65 767 94 760 q 23 801 39 775 q 17 853 7 828 q 36 983 42 915 q 56 1031 33 1010 q 106 1053 78 1053 q 153 1033 135 1053 q 175 983 172 1013 z "},"(":{"ha":471,"x_min":0,"x_max":404,"o":"m 207 1018 q 233 1048 218 1036 q 265 1064 249 1060 q 299 1067 282 1068 q 333 1060 317 1067 q 363 1042 349 1053 q 386 1017 376 1032 q 400 985 396 1001 q 401 950 404 969 q 388 913 399 931 q 245 517 279 728 q 258 99 211 307 q 247 19 267 57 q 185 -29 226 -18 q 105 -19 144 -40 q 57 43 65 3 q 39 544 0 290 q 207 1018 78 799 z "},")":{"ha":410,"x_min":63,"x_max":403,"o":"m 350 988 q 381 511 403 749 q 261 50 358 274 q 199 2 246 13 q 119 13 151 -8 q 72 76 81 35 q 82 156 63 118 q 176 538 158 336 q 149 932 193 740 q 194 1043 132 1004 q 301 1053 249 1078 q 350 988 339 1032 z "},"*":{"ha":689,"x_min":-4,"x_max":686,"o":"m 631 583 q 672 551 657 579 q 679 497 686 524 q 647 457 671 469 q 593 449 624 444 q 504 449 554 454 q 635 315 572 381 q 654 274 653 297 q 644 234 656 251 q 615 205 632 217 q 576 196 599 193 q 536 217 554 199 q 357 399 449 308 q 308 274 329 335 q 254 228 293 235 q 188 246 215 221 q 174 311 160 271 q 206 397 188 350 q 151 388 188 394 q 97 379 115 382 q 19 418 46 371 q 24 494 -4 463 q 60 514 36 510 q 135 526 85 518 q 211 539 186 535 q 76 661 142 603 q 58 726 46 689 q 106 774 71 764 q 175 760 140 783 q 313 633 242 700 q 400 790 356 717 q 424 815 410 807 q 452 824 438 824 q 481 819 467 824 q 507 805 496 815 q 525 782 518 794 q 531 753 532 769 q 521 721 531 736 q 440 578 479 651 q 631 583 554 594 z "},"+":{"ha":1042,"x_min":32,"x_max":1008,"o":"m 892 567 q 965 540 936 565 q 1001 481 994 515 q 1001 411 1008 446 q 965 352 994 376 q 892 329 936 328 q 767 332 850 331 q 643 333 685 333 q 658 196 649 263 q 659 149 663 172 q 647 106 656 125 q 619 72 638 86 q 576 50 600 57 q 484 63 532 38 q 431 133 436 88 q 407 338 415 236 q 278 340 364 339 q 149 342 192 342 q 76 368 106 343 q 39 428 46 393 q 39 497 32 463 q 76 556 46 532 q 149 579 106 579 q 272 576 190 578 q 396 575 354 575 q 399 764 394 671 q 435 849 401 814 q 518 883 468 883 q 602 847 565 883 q 636 764 639 811 q 632 571 631 668 q 892 567 718 569 z "},",":{"ha":183,"x_min":0,"x_max":175,"o":"m 168 124 q 144 -43 175 38 q 111 -85 135 -71 q 58 -92 88 -100 q 16 -58 32 -85 q 10 -7 0 -32 q 29 124 35 57 q 49 172 26 151 q 99 193 71 193 q 147 173 128 193 q 168 124 165 153 z "},"-":{"ha":1042,"x_min":32,"x_max":1008,"o":"m 892 558 q 966 535 936 560 q 1002 476 996 511 q 1002 406 1008 440 q 966 347 996 371 q 892 322 936 322 q 521 321 768 322 q 149 319 274 319 q 76 344 106 319 q 39 403 46 368 q 39 472 32 438 q 76 532 46 507 q 149 557 106 557 q 335 557 232 557 q 520 558 438 557 q 706 558 603 558 q 892 558 810 558 z "},".":{"ha":163,"x_min":11,"x_max":150,"o":"m 129 71 q 81 51 110 51 q 31 72 51 51 q 11 121 11 92 q 31 170 11 150 q 81 190 51 190 q 130 170 110 190 q 150 121 150 150 q 129 71 150 92 z "},"/":{"ha":479,"x_min":26,"x_max":449,"o":"m 358 936 q 411 905 389 928 q 441 851 433 882 q 442 790 449 821 q 267 68 325 308 q 211 -3 256 22 q 121 -15 167 -28 q 50 40 74 -3 q 39 131 26 83 q 213 853 169 671 q 268 924 224 899 q 358 936 313 949 z "},":":{"ha":174,"x_min":15,"x_max":157,"o":"m 39 313 q 88 333 60 333 q 137 313 117 333 q 157 264 157 293 q 137 215 157 235 q 88 194 117 194 q 39 215 60 194 q 18 264 18 235 q 39 313 18 293 m 85 432 q 35 452 56 432 q 15 501 15 472 q 35 551 15 531 q 85 571 56 571 q 134 551 114 571 q 154 501 154 531 q 149 474 154 488 q 134 452 143 461 q 112 438 125 443 q 85 432 99 432 z "},";":{"ha":190,"x_min":4,"x_max":179,"o":"m 172 244 q 149 78 179 158 q 115 35 139 50 q 63 29 92 21 q 20 63 36 36 q 14 114 4 89 q 33 244 39 178 q 42 279 32 263 q 68 305 51 296 q 103 314 85 314 q 151 294 132 314 q 172 244 169 274 m 135 456 q 87 436 115 436 q 38 456 58 436 q 17 506 17 476 q 38 555 17 535 q 87 575 58 575 q 135 555 115 575 q 156 506 156 535 q 135 456 156 476 z "},"<":{"ha":529,"x_min":69,"x_max":521,"o":"m 354 447 q 410 377 374 422 q 465 311 447 332 q 493 242 492 279 q 465 171 494 204 q 394 142 438 143 q 324 171 351 142 q 258 251 303 197 q 192 331 214 304 q 126 411 171 358 q 121 418 125 414 q 105 438 110 431 q 92 456 100 444 q 80 476 83 467 q 73 497 76 485 q 69 520 69 508 q 74 544 69 532 q 85 573 76 558 q 102 597 94 588 q 125 622 110 606 q 144 643 140 638 q 167 668 154 654 q 192 696 179 682 q 214 719 204 710 q 257 769 233 743 q 308 826 281 794 q 351 875 335 857 q 421 903 378 904 q 492 875 464 903 q 519 805 521 844 q 492 733 518 765 q 451 690 472 714 q 406 638 431 667 q 367 594 381 610 q 303 522 329 551 q 297 515 300 519 q 299 514 297 515 q 300 511 300 513 q 354 447 339 464 z "},"=":{"ha":1042,"x_min":32,"x_max":1008,"o":"m 149 500 q 76 524 106 500 q 39 583 46 549 q 39 653 32 618 q 76 713 46 688 q 149 738 106 738 q 892 739 643 739 q 966 716 936 740 q 1002 657 996 692 q 1002 587 1008 622 q 966 527 996 551 q 892 503 936 503 q 521 502 768 503 q 149 500 274 501 m 892 347 q 938 340 917 349 q 972 318 958 332 q 994 287 985 304 q 1005 249 1003 269 q 1005 210 1007 229 q 994 173 1003 190 q 972 142 985 156 q 938 119 958 128 q 892 111 917 111 q 521 110 768 111 q 149 108 274 108 q 76 133 106 108 q 39 192 46 157 q 39 261 32 226 q 76 321 46 296 q 149 346 106 346 q 387 347 253 346 q 655 347 521 347 q 892 347 789 347 z "},">":{"ha":651,"x_min":68,"x_max":589,"o":"m 568 506 q 578 431 589 471 q 532 369 567 392 q 239 165 371 268 q 169 137 206 139 q 99 165 132 135 q 69 235 71 192 q 99 306 68 279 q 347 486 225 404 q 196 760 265 621 q 187 835 178 796 q 232 896 196 875 q 307 906 264 917 q 368 861 350 896 q 568 506 458 678 z "},"?":{"ha":943,"x_min":46,"x_max":900,"o":"m 671 1047 q 844 878 788 997 q 856 639 900 758 q 785 533 832 575 q 729 492 767 517 q 719 485 728 490 l 703 472 q 708 478 703 472 q 692 461 700 471 q 688 454 690 460 q 682 444 686 453 q 679 439 681 442 q 674 415 676 428 q 674 411 674 414 q 675 347 674 374 q 636 251 681 292 q 536 207 592 210 q 441 247 479 206 q 397 347 403 289 q 428 553 388 458 q 560 711 469 647 q 589 732 578 725 q 594 735 592 733 q 596 738 594 736 q 597 738 596 738 q 597 739 597 739 q 594 749 597 740 q 596 740 597 740 q 588 768 592 747 q 576 781 582 772 q 563 790 575 782 q 547 797 553 794 q 525 801 539 799 q 522 802 525 801 q 513 803 518 803 q 504 804 508 803 q 469 803 488 804 q 451 800 465 803 l 450 800 q 463 803 453 800 q 439 797 461 803 q 406 789 417 792 q 396 785 401 788 q 375 775 397 785 q 369 772 372 774 q 365 767 368 769 q 360 761 363 764 q 353 749 354 750 q 349 726 351 736 q 349 713 349 719 q 351 705 350 710 q 352 697 351 700 q 353 693 353 693 q 358 678 354 686 q 345 573 376 625 q 261 507 314 521 q 156 520 204 492 q 89 604 108 549 q 94 849 46 725 q 260 1028 143 972 q 463 1081 357 1075 q 671 1047 569 1088 m 576 188 q 674 122 636 175 q 710 8 713 68 q 657 -114 707 -68 q 531 -162 601 -162 q 406 -110 456 -161 q 356 14 357 -60 q 369 81 354 47 q 407 140 383 115 q 533 193 458 190 q 564 190 549 194 q 576 188 571 189 z "},"@":{"ha":1118,"x_min":4,"x_max":1113,"o":"m 421 235 q 394 340 392 286 q 421 442 397 394 q 488 526 444 490 q 582 579 531 563 q 633 589 607 586 q 563 625 600 621 q 497 617 529 631 q 442 578 465 603 q 406 522 418 553 q 360 467 390 486 q 294 460 331 449 q 238 503 260 468 q 231 571 217 538 q 286 669 254 625 q 365 748 318 714 q 468 796 413 782 q 620 797 546 817 q 754 724 694 778 q 869 538 833 651 q 874 508 872 529 q 880 468 876 486 q 890 442 883 450 q 915 432 900 429 q 935 449 929 435 q 930 485 938 456 q 922 517 922 514 q 921 531 922 522 q 920 535 921 532 q 919 540 919 538 q 919 542 919 542 q 881 663 904 617 q 738 831 828 768 q 536 883 647 893 q 337 795 428 874 q 211 610 246 717 q 215 370 172 490 q 360 171 257 250 q 612 82 469 85 q 871 151 754 79 q 928 165 900 168 q 975 140 957 161 q 1002 94 993 119 q 1001 41 1011 69 q 963 -4 990 13 q 632 -99 810 -96 q 301 -8 454 -101 q 85 219 167 76 q 11 515 4 361 q 51 694 17 607 q 142 849 86 781 q 274 969 197 918 q 433 1045 350 1021 q 608 1063 515 1069 q 786 1014 700 1056 q 968 864 890 963 q 1079 650 1046 765 q 1105 531 1097 589 q 1099 408 1113 474 q 1047 303 1086 342 q 868 264 976 231 q 857 233 864 249 q 767 140 828 172 q 642 110 707 108 q 515 144 576 111 q 421 235 453 178 m 925 433 q 924 433 925 433 q 925 433 926 432 m 592 378 q 578 316 556 346 q 643 288 601 286 q 685 300 674 289 q 697 332 694 310 q 697 354 699 344 q 665 401 693 390 q 604 392 638 413 l 593 379 l 592 378 z "},"A":{"ha":1017,"x_min":-89,"x_max":1024,"o":"m 565 961 q 623 945 596 957 q 674 914 650 933 q 719 876 699 894 q 760 828 739 857 q 797 776 782 799 q 832 721 811 754 q 929 535 886 636 q 998 337 972 435 q 1017 156 1024 239 q 964 33 1010 72 q 838 -6 919 -4 q 608 97 729 -6 q 576 128 593 111 q 550 153 558 144 q 531 167 542 161 q 507 174 519 174 q 483 169 494 175 q 462 156 471 164 q 434 131 453 147 q 397 100 415 114 q 204 6 300 25 q 145 -6 167 -3 q 91 -6 124 -8 q 39 13 58 -3 q 176 683 -89 108 q 328 888 233 808 q 400 934 363 915 q 481 960 438 953 q 565 961 525 968 m 663 494 q 656 574 674 529 q 601 651 639 618 q 521 683 563 683 q 447 658 482 685 q 392 593 411 631 q 365 516 374 556 q 375 453 357 476 q 433 418 390 428 q 523 413 476 408 q 610 440 569 418 q 663 494 651 463 z "},"B":{"ha":1006,"x_min":-4,"x_max":1026,"o":"m 935 565 q 999 469 976 532 q 999 301 1026 392 q 978 249 990 274 q 948 204 965 225 q 915 167 931 183 q 878 135 900 151 q 844 111 856 119 q 813 90 832 103 q 788 75 800 82 q 747 54 775 68 q 692 30 719 40 q 626 9 665 19 q 547 -6 586 -1 q 458 -10 507 -11 q 363 -1 410 -10 q 283 15 313 7 q 203 48 253 22 q 115 111 153 74 q 59 187 82 146 q 26 271 36 228 q 12 338 15 314 q 7 396 8 363 q 83 710 -4 557 q 109 750 96 729 q 153 806 122 771 q 216 870 183 842 q 297 926 249 899 q 397 965 346 953 q 569 965 493 989 q 679 903 632 947 q 754 776 744 840 q 714 644 763 711 q 614 546 686 607 q 782 606 692 601 q 935 565 881 608 m 246 621 q 328 581 267 585 q 436 607 389 578 q 504 674 478 631 q 517 751 531 718 q 435 801 500 792 q 319 779 371 810 q 251 705 275 754 q 246 621 226 656 m 635 193 q 703 260 676 217 q 715 338 729 304 q 634 387 699 378 q 518 365 569 396 q 449 290 474 339 q 444 207 425 242 q 526 167 465 171 q 635 193 588 164 z "},"C":{"ha":867,"x_min":1,"x_max":871,"o":"m 776 371 q 849 307 828 356 q 857 207 871 258 q 703 51 832 115 q 389 6 557 -18 q 332 16 356 11 q 267 34 308 21 q 188 72 226 47 q 118 129 150 96 q 33 269 65 185 q 4 458 1 354 q 111 781 10 649 q 390 961 224 926 q 560 973 465 981 q 726 928 656 965 q 811 858 778 900 q 825 700 869 789 q 788 654 810 671 q 738 633 767 638 q 684 628 708 628 q 624 631 660 628 q 571 633 589 633 q 443 586 501 632 q 375 474 385 540 q 403 374 368 415 q 508 324 439 329 q 596 338 547 321 q 690 369 644 356 q 776 371 736 382 z "},"D":{"ha":947,"x_min":8,"x_max":949,"o":"m 746 857 q 800 817 781 832 q 849 774 819 801 q 899 713 879 746 q 932 643 919 681 q 947 551 946 599 q 941 466 949 503 q 919 393 933 429 q 894 338 904 357 q 874 304 883 318 q 750 174 818 224 q 597 85 682 125 q 578 76 590 81 q 527 58 565 71 q 449 37 489 46 q 355 22 410 28 q 249 19 300 15 q 143 51 185 24 q 67 144 97 82 q 32 258 47 186 q 13 422 17 331 q 19 601 8 513 q 68 770 31 690 q 168 896 106 850 q 229 931 196 915 q 282 953 263 947 l 301 958 q 478 963 375 978 q 746 857 628 940 m 368 378 q 435 371 394 361 q 514 402 475 381 q 580 458 553 424 q 604 526 607 493 q 576 584 601 556 q 517 629 551 613 q 447 651 483 646 q 382 639 410 656 q 329 508 333 610 q 368 378 325 406 z "},"E":{"ha":736,"x_min":-7,"x_max":733,"o":"m 475 668 q 526 593 393 626 q 581 581 544 589 q 633 567 625 571 q 683 456 711 528 q 620 399 669 422 q 520 368 571 376 q 428 351 469 360 q 388 333 388 343 q 394 326 388 331 q 424 316 401 322 q 487 301 447 310 q 594 278 526 292 q 619 273 604 275 q 645 269 635 271 q 669 265 656 268 q 691 257 683 261 q 708 246 699 253 q 721 230 718 239 q 727 208 724 221 q 725 178 731 194 q 679 94 717 136 q 429 -6 590 -1 q 263 15 332 -7 q 128 96 193 36 q 19 310 44 171 q 29 601 -7 456 q 160 842 65 746 q 352 951 236 919 q 585 965 468 982 q 703 911 660 954 q 729 862 725 886 q 719 817 733 838 q 685 778 706 796 q 632 742 664 760 q 574 713 600 725 q 518 688 549 701 q 475 668 488 675 z "},"F":{"ha":722,"x_min":-7,"x_max":733,"o":"m 585 968 q 703 915 660 957 q 729 866 725 890 q 719 821 733 842 q 685 781 706 800 q 632 746 664 763 q 574 717 600 729 q 518 692 549 706 q 475 672 488 678 q 526 597 393 631 q 581 585 544 592 l 633 571 q 683 460 711 532 q 653 418 674 435 q 603 392 632 401 q 549 377 575 382 q 490 367 524 372 q 442 357 457 361 q 417 350 426 354 q 403 340 407 346 q 397 329 399 335 q 397 315 394 324 q 401 299 399 307 q 408 279 403 292 q 415 256 413 267 q 426 182 424 222 q 421 99 429 142 q 390 32 413 56 q 297 1 360 1 q 199 22 235 1 q 83 141 132 56 q 19 314 35 226 q 29 605 -7 460 q 160 846 65 750 q 352 954 236 924 q 585 968 468 985 z "},"G":{"ha":825,"x_min":-17,"x_max":819,"o":"m 633 600 q 738 549 694 590 q 801 453 782 508 q 816 336 819 399 q 785 225 813 274 q 615 57 725 119 q 386 1 506 -6 q 140 110 240 10 q 14 360 40 211 q 54 684 -17 535 q 281 917 125 833 q 485 974 368 963 q 693 953 601 986 q 804 856 788 917 q 795 778 815 817 q 738 718 775 739 q 647 690 696 697 q 563 685 599 683 q 482 677 526 688 q 401 639 438 667 q 338 557 361 607 q 325 458 314 507 q 351 404 332 429 q 396 363 371 379 q 449 340 421 347 q 496 337 471 335 q 524 347 521 339 q 509 367 526 356 q 469 390 492 378 q 425 422 446 401 q 399 464 404 442 q 468 567 386 525 q 556 595 507 586 q 633 600 604 604 z "},"H":{"ha":974,"x_min":13,"x_max":964,"o":"m 904 922 q 939 853 929 894 q 946 499 964 754 q 941 415 944 475 q 935 320 938 354 q 925 234 932 286 q 907 138 918 182 q 839 21 889 54 q 807 4 824 10 q 781 -3 790 -1 l 772 -3 q 681 35 724 -3 q 634 101 651 61 q 614 188 617 140 q 612 265 611 236 q 617 335 613 293 q 631 424 621 381 q 500 421 565 421 q 374 424 436 421 q 376 350 376 388 q 374 244 376 281 q 359 158 372 208 q 319 71 346 107 q 301 47 310 56 q 276 24 293 38 q 239 4 258 11 q 144 7 192 -11 q 65 75 100 24 q 26 218 28 133 q 25 240 26 225 q 67 871 13 725 q 111 938 83 911 q 190 979 150 975 q 271 958 232 983 q 328 881 306 935 q 346 783 336 858 q 354 663 353 724 q 486 669 421 669 q 631 664 531 669 l 644 775 q 651 816 649 803 q 659 847 654 829 q 669 876 664 864 q 685 901 675 889 q 765 965 719 953 q 844 965 806 978 q 904 922 878 954 z "},"I":{"ha":643,"x_min":0,"x_max":665,"o":"m 433 593 q 419 474 424 533 q 419 350 417 413 q 476 347 419 361 q 546 325 532 332 q 632 219 633 281 q 565 80 629 132 q 407 13 501 28 q 201 18 304 -6 q 74 92 118 38 q 39 183 42 132 q 68 274 36 233 q 140 326 96 308 q 190 340 149 331 q 231 344 231 349 l 240 597 q 110 595 171 576 q 22 660 50 614 q 2 722 4 689 q 12 786 0 756 q 31 831 24 817 q 47 860 39 846 q 123 933 76 904 q 219 971 169 963 q 294 981 268 979 q 344 982 321 983 q 365 981 356 982 q 398 977 375 981 q 440 968 421 974 q 486 952 460 963 q 533 928 513 942 q 575 894 554 915 q 610 847 596 872 q 613 660 665 739 q 538 601 586 619 q 433 593 489 583 z "},"J":{"ha":647,"x_min":-10,"x_max":640,"o":"m 458 968 q 536 948 503 967 q 590 898 569 929 q 621 831 610 867 q 635 751 632 794 q 617 451 640 649 q 604 360 610 394 q 587 274 599 325 q 555 181 575 222 q 507 110 535 140 q 379 24 453 50 q 225 10 306 -3 q 57 94 124 25 q -4 261 -10 163 q 51 360 0 329 q 199 350 110 392 q 263 325 244 328 q 285 326 274 324 q 307 336 297 329 q 321 353 317 343 q 324 386 325 363 q 324 426 324 397 q 325 472 325 454 q 324 514 325 490 q 318 556 322 538 q 304 583 315 572 q 284 597 293 593 q 253 608 275 601 q 224 618 232 615 q 149 676 171 638 q 126 775 126 714 q 171 911 126 864 q 249 956 200 942 q 350 970 299 971 q 458 968 401 969 z "},"K":{"ha":838,"x_min":25,"x_max":844,"o":"m 556 508 q 757 282 653 401 q 804 225 789 246 q 832 174 819 204 q 842 117 844 144 q 803 36 836 68 q 708 0 761 -4 q 680 6 693 1 q 653 20 667 10 q 630 40 640 31 q 603 69 619 49 q 578 102 588 89 q 549 144 569 115 q 515 190 528 172 q 339 407 433 300 q 274 122 324 254 q 259 89 265 103 q 244 62 253 75 q 225 39 236 49 q 201 22 214 29 q 133 10 169 7 q 69 32 96 13 q 32 99 39 56 q 25 251 25 143 q 38 676 25 497 q 57 864 46 814 q 104 942 68 914 q 222 971 160 986 q 317 885 282 957 q 327 853 324 869 q 331 824 331 836 q 335 772 332 811 q 346 604 339 690 q 501 864 411 746 q 562 931 535 907 q 626 965 589 956 q 747 949 703 986 q 782 842 788 914 q 779 822 782 832 q 774 803 776 811 q 766 785 772 796 q 756 767 760 774 q 742 749 753 761 q 727 730 732 736 q 708 707 722 724 q 688 682 694 690 q 556 508 619 600 z "},"L":{"ha":708,"x_min":17,"x_max":722,"o":"m 672 299 q 718 197 714 261 q 688 90 722 139 q 653 56 674 71 q 618 36 633 42 q 579 22 603 31 q 408 7 510 -1 q 342 15 367 11 q 278 28 318 18 q 203 57 238 38 q 138 104 168 76 q 76 188 106 136 q 32 313 43 247 q 19 496 21 379 q 26 784 17 700 q 76 908 35 868 q 208 963 139 968 q 315 908 276 958 q 346 790 344 872 q 347 642 347 729 q 344 465 346 554 q 343 368 343 375 q 348 357 344 361 q 364 351 351 353 q 526 342 418 349 q 672 299 633 335 z "},"M":{"ha":1036,"x_min":15,"x_max":1017,"o":"m 904 963 q 974 832 956 939 q 1008 539 1000 688 q 1015 336 1017 390 q 1011 249 1014 282 q 998 127 1006 171 q 976 57 990 83 q 940 19 963 31 q 876 9 915 6 q 810 33 836 13 q 772 86 793 47 q 743 164 753 119 q 736 392 724 254 q 654 218 715 293 q 615 174 629 189 q 575 144 601 160 q 523 126 549 128 q 473 135 497 125 q 425 168 449 146 q 388 206 401 190 q 353 249 374 221 q 279 386 306 311 q 296 197 297 290 q 276 88 294 129 q 222 17 254 36 q 162 0 196 1 q 104 13 128 -1 q 53 70 68 31 q 28 171 38 110 q 22 215 25 188 q 17 315 19 242 q 19 463 15 388 q 41 644 24 539 q 88 846 58 749 q 171 961 118 943 q 260 947 213 976 q 326 883 289 929 q 517 560 446 735 q 736 896 644 771 q 824 965 776 951 q 904 963 871 979 z "},"N":{"ha":953,"x_min":11,"x_max":942,"o":"m 888 942 q 913 912 903 929 q 933 856 924 894 q 941 746 942 818 q 928 572 940 674 q 919 483 922 513 q 908 400 915 453 q 896 318 901 347 q 881 246 890 289 q 862 178 871 203 q 840 122 853 153 q 812 73 826 90 q 778 40 797 56 q 736 17 758 24 q 629 19 690 1 q 438 225 546 43 q 331 446 375 331 q 326 164 350 301 q 263 17 306 44 q 178 -1 225 -6 q 96 29 132 3 q 65 67 76 43 q 41 162 53 90 q 24 358 29 233 q 44 761 11 589 q 78 882 58 838 q 136 949 99 926 q 243 968 183 976 q 327 930 286 961 q 399 855 368 899 q 459 759 431 811 q 509 656 488 707 q 548 565 531 606 q 578 500 565 524 q 601 479 592 476 q 613 543 608 481 q 613 561 613 554 q 615 580 614 568 q 616 605 615 592 q 618 631 617 618 q 636 794 628 757 q 651 847 646 829 q 666 890 656 865 q 691 931 676 915 q 725 958 706 947 q 808 972 763 978 q 888 942 854 967 z "},"O":{"ha":865,"x_min":-18,"x_max":865,"o":"m 419 969 q 459 968 435 971 q 531 956 483 965 q 633 919 579 947 q 732 847 688 890 q 833 686 800 779 q 863 506 865 593 q 833 338 861 418 q 813 286 825 311 q 775 217 801 261 q 703 130 749 172 q 601 60 658 88 q 453 13 532 25 q 291 18 374 0 q 149 88 208 36 q 39 265 76 149 q 29 631 -18 444 q 53 712 42 679 q 93 792 64 744 q 163 874 122 839 q 419 969 269 967 m 590 424 q 599 524 608 465 q 551 622 590 583 q 429 669 500 672 q 331 632 372 668 q 278 538 294 601 q 282 396 260 465 q 325 326 297 351 q 412 296 360 297 q 500 317 464 294 q 590 424 565 349 z "},"P":{"ha":868,"x_min":7,"x_max":886,"o":"m 736 906 q 831 789 794 861 q 861 542 886 679 q 743 325 836 406 q 610 251 688 275 q 501 235 557 235 q 411 236 444 236 q 362 216 378 236 q 351 161 346 196 q 365 99 357 126 q 353 40 374 72 q 262 1 326 4 q 147 26 197 -3 q 72 101 101 51 q 30 216 47 146 q 10 376 13 286 q 23 556 7 467 q 88 732 39 644 q 217 876 138 819 q 394 959 294 933 q 585 968 493 985 q 736 906 674 953 m 588 578 q 579 663 593 619 q 528 725 565 706 q 426 728 478 749 q 343 664 374 708 q 322 531 296 596 q 390 461 342 485 q 489 451 439 438 q 524 468 508 457 q 551 494 540 479 q 568 522 561 508 q 579 548 575 535 q 585 567 583 561 q 588 578 586 574 z "},"Q":{"ha":967,"x_min":-22,"x_max":965,"o":"m 663 942 q 908 756 836 881 q 964 526 965 656 q 901 335 963 397 q 894 328 900 333 q 885 319 889 322 q 876 308 882 315 q 865 294 869 300 q 856 280 861 289 q 849 263 851 271 q 844 246 846 256 q 843 226 842 236 q 857 176 843 208 q 860 53 890 100 q 801 14 842 24 q 729 14 769 6 q 644 47 713 18 q 626 51 638 53 q 609 47 615 49 q 592 39 603 44 q 575 32 582 33 q 390 4 483 1 q 263 28 319 7 q 192 65 225 42 q 138 113 160 89 q 95 169 115 138 q 64 224 75 201 q 42 276 53 246 q 29 316 32 306 q 22 342 26 326 q 47 671 -22 514 q 63 705 54 688 q 97 758 72 722 q 149 824 121 794 q 224 885 178 853 q 325 939 271 918 q 663 942 492 1001 m 725 406 q 735 435 735 411 q 726 492 736 458 q 698 559 715 525 q 649 625 681 593 q 578 675 617 657 q 425 689 504 707 q 311 624 351 672 q 268 529 279 586 q 288 382 253 450 q 392 278 322 315 q 483 260 463 240 q 483 289 490 267 q 467 336 475 311 q 469 397 458 361 q 504 444 481 424 q 557 472 528 465 q 615 466 585 478 q 664 438 644 454 q 701 411 683 422 q 725 406 718 400 z "},"R":{"ha":799,"x_min":15,"x_max":804,"o":"m 485 956 q 672 851 590 932 q 782 668 753 771 q 788 511 804 588 q 707 378 769 426 q 553 317 660 340 q 683 226 635 281 q 731 114 732 171 q 703 36 731 65 q 572 7 660 -10 q 524 26 547 13 q 487 50 500 39 q 454 81 474 61 q 347 260 381 154 q 326 133 350 193 q 253 29 294 54 q 167 6 214 6 q 86 29 121 7 q 15 301 15 74 q 16 408 15 371 q 21 511 17 446 q 35 619 25 576 q 61 713 44 661 q 106 803 78 764 q 172 875 133 843 q 351 960 257 946 q 485 956 418 971 m 547 569 q 539 654 553 611 q 489 718 525 697 q 387 720 439 740 q 303 656 335 700 q 283 524 257 588 q 351 453 301 476 q 449 443 400 429 q 485 460 468 449 q 511 486 501 472 q 528 513 521 500 q 540 540 536 526 q 546 560 544 554 q 547 569 547 565 z "},"S":{"ha":649,"x_min":4,"x_max":661,"o":"m 486 528 q 629 406 596 496 q 619 218 661 315 q 500 71 583 136 q 292 -1 417 6 q 82 51 168 -8 q 7 172 13 100 q 23 243 4 210 q 75 290 42 276 q 247 281 121 307 q 260 278 251 281 q 289 272 278 274 q 321 267 300 269 q 356 263 342 264 q 388 265 369 263 q 418 272 406 267 q 440 287 431 276 q 456 313 450 297 q 458 333 456 325 q 453 350 460 342 q 444 363 447 358 q 430 372 440 367 q 413 378 419 376 q 395 384 407 381 q 378 390 383 388 q 290 411 349 400 q 266 415 288 411 q 239 419 244 418 q 215 424 233 421 q 189 431 197 428 q 167 438 181 433 q 142 449 153 443 q 119 461 131 454 q 33 574 54 506 q 31 713 13 643 q 99 839 50 782 q 301 958 171 926 q 385 969 340 967 q 476 964 429 971 q 559 933 522 957 q 610 868 596 908 q 615 810 619 842 q 593 754 611 778 q 528 708 569 721 q 438 690 488 696 q 361 671 389 685 q 317 624 326 653 q 316 586 307 601 q 338 562 325 571 q 373 547 350 553 q 415 539 396 542 q 455 533 433 536 q 486 528 476 531 z "},"T":{"ha":897,"x_min":-21,"x_max":914,"o":"m 444 968 q 885 889 835 971 q 908 781 914 844 q 865 685 903 718 q 802 661 840 663 q 730 669 764 660 q 657 679 696 679 q 593 660 618 679 q 567 603 572 642 q 561 428 563 565 q 558 256 560 324 q 547 99 557 149 q 501 24 538 49 q 394 7 451 -10 q 318 75 350 21 q 292 188 293 119 q 306 326 292 257 q 335 462 321 396 q 348 581 349 528 q 321 657 347 635 q 268 671 303 674 q 202 657 233 668 q 131 646 171 646 q 60 668 90 646 q -3 767 14 700 q 6 885 -21 835 q 124 951 33 938 q 444 968 215 965 z "},"U":{"ha":893,"x_min":3,"x_max":890,"o":"m 825 942 q 875 851 861 914 q 883 668 890 760 q 861 508 876 576 l 844 439 q 796 283 814 331 q 747 190 778 235 q 711 141 726 160 q 665 91 696 122 q 597 38 635 60 q 513 6 558 17 q 456 -3 485 -1 q 402 -3 426 -6 q 353 4 378 -1 q 310 16 329 10 q 274 31 292 22 q 245 45 256 39 q 225 57 235 51 q 49 296 104 139 q 11 594 3 425 q 72 867 18 753 q 129 946 97 919 q 221 971 161 972 q 304 946 276 969 q 332 899 325 929 q 339 815 339 869 q 330 663 340 747 q 318 532 319 579 q 349 358 314 392 q 424 327 378 331 q 503 346 471 324 q 532 390 521 360 q 553 500 543 421 q 566 648 558 540 q 589 825 574 756 q 610 903 599 875 q 646 946 622 931 q 757 968 689 976 q 825 942 800 961 z "},"V":{"ha":968,"x_min":-8,"x_max":988,"o":"m 889 957 q 964 868 936 933 q 965 738 988 813 q 847 456 942 664 q 834 428 839 438 q 822 402 829 418 q 810 372 815 386 q 588 44 699 128 q 488 0 539 6 q 364 25 428 -8 q 278 99 314 50 q 186 256 243 147 q 147 336 171 286 q 74 517 124 386 q 3 747 24 647 q 3 843 -8 799 q 92 960 26 935 q 240 932 156 985 q 308 866 279 907 q 369 742 336 825 q 472 432 432 593 q 629 808 540 631 q 656 858 644 839 q 684 901 667 878 q 722 940 701 924 q 768 964 743 956 q 889 957 833 985 z "},"W":{"ha":1150,"x_min":-3,"x_max":1154,"o":"m 1046 965 q 1138 875 1104 951 q 1150 833 1146 854 q 1153 789 1154 813 q 1148 747 1151 765 q 1138 699 1144 728 q 1058 419 1101 540 q 1019 306 1039 367 q 988 211 999 244 q 963 140 976 178 q 940 84 949 103 q 918 47 931 65 q 892 19 906 28 q 863 6 879 11 q 783 10 824 -6 q 705 78 738 25 q 660 184 672 131 q 632 280 647 238 q 600 322 617 322 q 574 295 586 322 q 550 227 563 268 q 522 143 538 186 q 476 63 506 100 q 407 13 446 26 q 322 10 365 -3 q 247 74 275 22 q 153 292 218 125 q 136 338 142 322 q 25 660 61 528 q 3 749 10 715 q 0 820 -3 783 q 18 888 3 857 q 101 964 50 944 q 199 964 149 981 q 248 933 225 954 q 287 890 271 913 q 321 825 303 867 q 349 753 339 783 q 379 667 360 722 q 394 619 386 646 q 408 576 403 592 q 418 545 413 561 q 428 523 424 529 q 438 517 433 517 q 446 529 443 517 q 457 572 449 542 q 476 631 465 601 q 515 699 496 676 q 600 749 560 750 q 682 694 646 747 q 707 629 694 678 q 729 529 721 579 q 808 729 767 625 q 867 864 846 824 q 922 929 889 904 q 1046 965 990 979 z "},"X":{"ha":799,"x_min":0,"x_max":794,"o":"m 758 211 q 794 104 792 144 q 790 66 794 85 q 774 32 785 47 q 746 8 763 17 q 708 -4 728 -1 q 669 -1 689 -7 q 632 10 649 4 q 594 31 615 15 q 560 56 574 46 q 527 88 547 67 q 498 117 507 108 q 470 148 489 126 q 447 172 451 169 q 407 218 426 196 q 285 94 353 147 q 250 67 261 75 q 215 42 239 58 q 173 17 190 25 q 134 2 156 10 q 93 -4 113 -6 q 57 6 74 -3 q 15 40 29 18 q 3 69 6 54 q 3 103 0 85 q 9 137 6 121 q 22 174 13 153 q 38 210 32 196 q 57 246 44 224 q 225 472 121 369 q 79 700 126 575 q 57 760 64 738 q 41 822 50 782 q 38 892 32 861 q 64 944 43 922 q 110 974 85 967 q 128 976 119 975 q 147 974 138 976 q 166 969 157 972 q 185 960 175 967 q 203 949 196 954 q 222 935 211 944 q 239 921 232 926 q 258 904 246 915 q 275 888 269 893 q 293 871 281 882 q 410 719 360 804 q 544 894 469 817 q 647 963 599 947 q 756 957 721 986 q 782 906 775 940 q 785 849 790 881 q 775 792 781 817 q 756 738 769 767 q 731 691 742 710 q 707 652 721 672 q 688 624 693 632 q 676 610 682 617 q 576 515 633 557 l 576 510 q 758 211 683 357 z "},"Y":{"ha":946,"x_min":-11,"x_max":963,"o":"m 915 928 q 958 814 963 885 q 939 756 957 786 q 869 668 921 726 q 678 474 783 575 q 649 449 672 468 q 612 414 625 429 q 593 382 599 399 q 578 295 579 343 q 581 191 576 247 q 582 103 585 135 q 476 -1 575 14 q 340 26 385 -17 q 311 79 321 44 q 300 137 301 114 q 301 210 299 160 q 304 267 304 260 q 307 305 304 274 q 308 357 310 336 q 297 394 306 378 q 276 426 289 410 q 253 456 264 443 q 226 485 242 468 q 200 515 210 503 q 139 589 193 525 q 58 688 85 653 q -11 818 -8 771 q -10 847 -11 831 q 4 896 -10 864 q 43 946 18 928 q 176 956 99 985 q 224 926 201 946 q 258 892 246 907 q 293 842 269 876 q 456 600 367 731 q 665 854 557 731 q 713 907 694 889 q 760 942 732 925 q 818 960 789 958 q 915 928 876 964 z "},"Z":{"ha":983,"x_min":6,"x_max":982,"o":"m 774 965 q 808 962 794 964 q 839 956 821 960 q 869 948 857 953 q 897 935 882 943 q 922 915 911 926 q 979 756 982 860 q 915 556 978 657 q 869 492 896 522 q 822 446 842 463 q 767 399 803 429 q 625 301 700 343 q 783 297 706 308 q 888 260 867 285 q 911 204 907 239 q 911 144 915 169 q 883 47 907 75 q 838 19 865 28 q 764 7 811 11 q 543 3 657 -1 q 454 5 504 4 q 365 5 404 6 q 276 6 325 4 q 97 12 138 7 q 39 40 57 17 q 13 174 11 78 q 26 264 14 226 q 100 341 42 307 q 231 397 158 375 q 428 461 304 418 q 657 556 553 504 q 739 610 743 596 q 726 616 738 615 q 692 615 714 617 q 641 610 669 613 q 573 602 613 607 q 491 594 533 597 q 394 587 449 590 q 285 583 339 583 q 128 593 178 582 q 53 636 78 604 q 25 819 6 696 q 58 913 36 883 q 138 960 83 949 q 340 976 193 971 q 774 965 538 985 z "},"[":{"ha":572,"x_min":18,"x_max":504,"o":"m 401 1067 q 467 1047 440 1068 q 499 994 493 1025 q 498 933 504 964 q 466 881 492 903 q 401 858 440 858 l 307 856 q 269 539 286 679 q 247 329 258 433 q 243 297 246 315 q 238 264 240 279 q 233 230 235 249 q 229 197 231 211 q 281 199 249 196 q 353 169 321 203 q 385 94 385 135 q 376 53 385 72 q 353 22 368 35 q 320 0 339 8 q 281 -10 301 -8 q 206 -11 247 -15 q 128 3 165 -7 q 63 40 92 14 q 24 104 33 67 q 19 140 19 119 q 19 174 18 160 q 24 213 21 189 q 29 247 28 238 q 44 385 36 315 q 110 958 75 667 q 143 1033 115 1004 q 214 1064 171 1063 q 308 1065 246 1064 q 401 1067 371 1067 z "},"\\":{"ha":479,"x_min":26,"x_max":453,"o":"m 442 174 q 429 83 453 125 q 358 28 406 40 q 268 40 313 15 q 213 110 224 64 q 39 832 82 650 q 50 922 26 879 q 121 978 74 965 q 211 966 167 990 q 267 896 256 942 q 354 534 296 775 q 442 174 413 293 z "},"]":{"ha":503,"x_min":69,"x_max":468,"o":"m 468 199 q 468 163 468 194 q 467 120 468 132 q 463 86 467 108 q 450 49 458 64 q 374 -15 426 4 q 274 -33 322 -35 q 172 -19 225 -32 q 110 28 132 -11 q 100 108 89 68 q 149 170 111 150 q 228 182 186 190 q 258 176 244 178 q 258 217 258 197 q 258 318 258 269 q 258 519 258 417 q 256 842 258 663 l 174 853 q 99 885 129 858 q 69 957 69 913 q 101 1032 69 997 q 174 1061 133 1067 q 267 1049 204 1057 q 360 1038 329 1042 q 412 1021 389 1033 q 449 985 435 1008 q 464 933 464 963 q 468 346 468 635 q 468 199 468 272 z "},"^":{"ha":576,"x_min":29,"x_max":561,"o":"m 531 850 q 521 768 561 804 q 442 753 483 735 q 410 779 422 761 q 296 900 354 863 q 281 882 285 888 q 244 839 263 860 q 156 753 206 796 q 85 739 124 725 q 38 786 47 753 q 57 851 29 819 q 178 975 126 911 q 190 990 182 979 q 203 1007 199 1001 q 215 1022 207 1013 q 230 1035 224 1031 q 245 1044 236 1039 q 263 1051 254 1050 q 282 1053 271 1053 q 304 1050 293 1053 q 426 975 367 1032 q 531 850 485 918 z "},"_":{"ha":1506,"x_min":32,"x_max":1474,"o":"m 1357 239 q 1430 215 1400 239 q 1467 156 1460 190 q 1467 86 1474 121 q 1430 27 1460 51 q 1357 3 1400 3 q 1246 2 1308 3 q 1122 1 1183 1 q 1011 1 1060 1 q 581 1 868 1 q 149 0 293 0 q 76 24 106 0 q 39 83 46 49 q 39 153 32 118 q 76 212 46 188 q 149 236 106 236 q 531 238 404 238 q 724 239 594 239 q 1040 239 829 239 q 1357 239 1251 239 z "},"a":{"ha":871,"x_min":-1,"x_max":874,"o":"m 782 713 q 803 654 792 692 q 836 165 874 400 q 818 110 832 133 q 781 74 804 88 q 724 60 757 60 q 663 92 686 60 q 639 165 639 125 q 593 49 640 86 q 457 -3 546 11 q 244 32 357 -18 q 67 188 131 82 q 12 335 25 256 q 19 499 -1 415 q 97 647 40 583 q 208 732 143 699 q 342 775 274 765 q 478 760 411 785 q 588 675 544 735 q 596 729 583 703 q 632 771 608 756 q 685 785 656 786 q 738 769 714 785 q 782 713 764 751 m 515 388 q 469 522 522 478 q 457 531 464 526 q 431 544 450 535 q 395 554 413 554 q 353 549 378 554 q 281 460 306 531 q 282 343 260 399 q 358 258 308 275 q 386 253 372 254 q 412 256 400 253 q 433 261 424 258 q 451 269 443 264 q 463 276 460 274 q 468 281 467 279 q 515 388 510 314 z "},"b":{"ha":860,"x_min":6,"x_max":856,"o":"m 574 781 q 670 753 625 776 q 742 705 715 731 q 792 647 769 679 q 823 599 815 614 q 835 572 831 583 q 856 463 856 519 q 844 365 856 406 q 811 281 833 324 q 778 221 789 238 q 754 189 767 204 q 522 26 669 79 q 258 28 375 -28 q 208 61 232 40 q 168 99 183 82 q 136 144 153 117 q 113 182 119 171 q 97 214 107 193 q 46 375 69 271 q 21 513 29 446 q 14 590 17 561 q 8 672 11 619 q 10 762 6 725 q 22 840 14 799 q 48 910 29 881 q 93 954 67 939 q 186 971 133 978 q 268 932 239 964 q 290 888 285 914 q 300 806 296 863 q 289 639 306 722 q 367 721 321 688 q 466 770 413 754 q 574 781 519 786 m 554 297 q 607 431 618 363 q 603 445 606 436 q 593 471 600 454 q 571 503 586 488 q 536 525 556 518 q 424 504 489 543 q 349 414 368 471 q 353 300 325 346 q 374 275 361 286 q 399 259 388 264 q 423 251 410 254 q 441 247 436 247 q 450 246 446 246 q 554 297 503 244 z "},"c":{"ha":757,"x_min":-3,"x_max":756,"o":"m 576 343 q 659 353 613 363 q 729 308 706 344 q 753 221 756 268 q 725 135 750 174 q 567 19 668 47 q 351 8 467 -8 q 162 81 244 22 q 39 233 79 139 q 7 428 -3 325 q 78 610 17 531 q 379 779 185 746 q 433 785 404 783 q 513 787 463 788 q 608 769 564 786 q 676 719 653 753 q 698 677 690 700 q 706 640 706 654 l 706 628 q 681 551 704 586 q 603 497 656 515 q 495 487 572 486 q 390 467 418 488 q 328 383 338 438 q 348 302 318 336 q 426 268 378 268 q 477 281 451 268 q 531 315 503 294 q 576 343 560 335 z "},"d":{"ha":851,"x_min":4,"x_max":844,"o":"m 758 963 q 803 919 785 947 q 830 849 822 890 q 841 771 838 807 q 842 681 844 735 q 838 599 840 628 q 829 522 835 569 q 806 385 822 454 q 754 224 781 276 q 581 42 692 97 q 367 7 483 -7 q 161 92 251 21 q 49 232 90 147 q 6 402 8 317 q 33 569 4 488 q 49 605 42 589 q 78 655 56 621 q 125 714 100 689 q 191 761 150 739 q 278 789 232 783 q 383 781 331 796 q 483 731 436 765 q 563 647 529 697 q 551 815 546 731 q 560 897 556 871 q 583 942 565 922 q 665 979 613 972 q 758 963 718 986 m 469 278 q 506 388 508 314 q 458 494 503 447 q 357 546 407 549 q 317 535 336 544 q 287 510 299 525 q 269 488 275 496 q 261 475 264 481 q 274 333 232 414 q 360 254 308 268 q 381 250 368 251 q 421 254 393 249 q 469 278 449 260 z "},"e":{"ha":771,"x_min":0,"x_max":776,"o":"m 732 276 q 769 212 761 258 q 763 136 776 165 q 731 94 753 110 q 661 56 710 79 q 457 3 572 13 q 289 11 350 -6 q 67 156 140 49 q 12 293 24 217 q 15 438 0 369 q 61 565 29 506 q 77 591 68 576 q 112 636 86 606 q 167 691 138 667 q 243 740 196 715 q 342 774 290 764 q 621 719 522 808 q 635 706 628 714 q 657 677 643 697 q 681 636 671 657 q 696 585 690 615 q 697 525 701 556 q 663 438 690 478 q 600 375 636 399 q 406 343 533 333 q 375 346 392 343 q 348 350 358 349 q 328 352 338 351 q 313 352 318 353 q 306 347 308 351 q 317 320 301 339 q 353 290 332 301 q 544 264 422 249 q 588 272 558 265 q 640 284 617 279 q 689 288 663 289 q 732 276 715 288 m 444 636 q 366 603 396 635 q 365 533 336 571 q 372 525 368 529 q 453 503 403 492 q 511 545 496 511 q 507 608 526 579 q 444 636 488 638 z "},"f":{"ha":761,"x_min":-10,"x_max":768,"o":"m 514 728 q 492 671 500 718 q 497 597 481 614 q 542 588 510 586 q 637 590 585 593 q 713 569 689 588 q 744 511 738 550 q 735 443 750 472 q 629 376 707 388 q 589 373 615 375 q 541 368 563 371 q 501 360 519 365 q 485 203 493 278 q 474 103 478 132 q 462 55 469 74 q 440 25 454 36 q 376 6 414 6 q 311 25 339 7 q 275 76 285 44 q 257 181 265 108 q 261 376 247 276 q 113 386 185 367 q 67 399 82 394 q 34 415 51 404 q 8 442 17 426 q -4 513 -10 472 q 26 575 1 553 q 76 593 46 592 q 133 588 107 594 q 186 581 160 581 q 225 596 213 581 q 232 611 232 603 q 230 649 232 619 q 229 711 228 678 q 234 802 231 774 q 251 857 238 831 q 326 932 274 900 q 497 971 394 975 q 526 969 513 969 q 567 964 539 968 q 620 952 596 960 q 671 933 644 944 q 718 901 697 921 q 750 854 739 881 q 763 772 768 817 q 733 710 758 726 q 700 703 715 703 q 643 710 685 703 q 593 720 618 714 q 556 730 568 726 q 533 733 544 733 q 514 728 521 733 z "},"g":{"ha":808,"x_min":-6,"x_max":790,"o":"m 731 690 q 751 658 742 675 q 776 604 767 632 q 788 542 785 576 q 790 485 790 507 q 788 419 790 463 q 785 360 786 376 q 751 179 782 244 q 656 70 721 113 q 514 18 590 28 q 353 25 438 8 q 264 89 272 44 q 274 127 261 108 q 308 158 286 146 q 333 167 322 164 q 366 174 344 171 q 403 181 388 176 q 433 187 424 185 q 463 194 442 189 q 495 206 485 200 q 520 222 506 213 q 542 246 535 232 q 551 276 549 260 q 331 213 456 203 q 111 301 206 222 q 47 372 74 333 q 7 459 19 411 q 4 551 -6 507 q 56 653 15 600 q 258 803 133 754 q 510 828 383 851 q 731 690 649 801 m 476 519 q 493 565 492 540 q 476 613 494 590 q 408 641 453 639 q 329 621 363 643 q 289 558 296 597 q 306 496 282 518 q 393 475 336 467 q 476 519 450 483 z "},"h":{"ha":911,"x_min":18,"x_max":900,"o":"m 794 601 q 847 531 825 572 q 879 453 869 489 q 894 359 889 417 q 900 273 900 301 q 900 185 900 244 q 882 67 899 108 q 846 17 869 38 q 793 -8 822 -4 q 715 18 751 -14 q 663 96 678 50 q 640 185 657 114 q 606 296 622 257 q 525 385 576 364 q 436 382 483 401 q 360 322 389 363 q 333 247 342 294 q 322 159 324 200 q 304 78 319 118 q 257 18 289 38 q 174 1 221 -4 q 94 32 128 6 q 61 78 74 47 q 46 126 49 108 q 40 191 43 144 q 38 242 38 238 q 26 643 18 449 q 28 686 26 665 q 34 759 31 729 q 47 831 38 789 q 77 904 57 874 q 128 951 97 935 q 206 974 165 972 q 285 950 246 975 q 307 931 297 942 q 322 907 317 921 q 331 883 328 893 q 336 856 335 874 q 338 829 338 838 q 338 799 338 821 q 338 771 338 778 q 336 628 336 642 q 480 694 390 683 q 654 677 569 704 q 794 601 739 650 z "},"i":{"ha":360,"x_min":1,"x_max":342,"o":"m 342 542 q 342 467 342 529 q 341 383 342 404 q 337 310 340 363 q 327 227 333 257 q 308 157 321 197 q 278 83 296 117 q 214 15 253 38 q 131 15 175 -7 q 67 73 93 33 q 32 158 42 113 q 22 461 1 296 q 92 658 38 579 q 176 722 122 704 q 278 714 231 740 q 342 542 342 674 m 194 817 q 160 838 175 822 q 142 863 146 854 q 138 878 139 872 q 157 958 125 925 q 225 986 182 986 q 294 956 268 986 q 312 898 313 931 q 290 842 311 865 q 246 815 272 822 q 194 817 219 807 z "},"j":{"ha":572,"x_min":-8,"x_max":556,"o":"m 542 592 q 555 439 554 526 q 550 285 556 351 q 546 219 547 238 q 535 165 544 200 q 508 107 526 129 q 432 38 476 67 q 342 1 388 8 q 225 13 301 -4 q 110 45 158 26 q 26 100 61 64 q -7 167 -8 133 q 9 208 -7 189 q 47 236 25 226 q 138 247 79 250 q 232 281 217 244 q 245 349 244 308 q 242 437 246 390 q 240 508 239 483 q 319 694 253 636 q 364 724 342 714 q 475 710 425 751 q 542 592 525 668 m 397 807 q 364 830 378 814 q 347 854 350 846 q 340 868 343 863 q 360 949 329 915 q 428 976 386 976 q 497 946 471 976 q 515 888 517 921 q 493 832 514 856 q 449 806 475 813 q 397 807 424 799 z "},"k":{"ha":839,"x_min":15,"x_max":846,"o":"m 693 774 q 813 747 774 788 q 840 695 833 726 q 839 642 846 664 q 833 626 836 633 q 826 613 831 619 q 817 601 821 606 q 804 588 814 596 q 790 574 794 579 q 771 558 785 569 q 749 539 757 546 q 667 467 692 490 q 622 419 642 444 q 600 374 603 394 q 644 243 589 308 q 665 223 654 231 q 691 204 676 215 q 722 176 706 193 q 759 138 747 150 q 780 108 771 125 q 786 79 789 92 q 727 26 781 47 q 621 11 674 6 q 536 42 576 15 q 471 99 496 68 q 424 168 446 129 q 394 225 401 207 q 383 254 388 243 q 350 140 374 196 q 329 95 336 110 q 309 63 322 81 q 279 35 296 46 q 165 13 222 -4 q 92 69 124 25 q 35 248 54 122 q 19 508 15 374 q 58 763 24 642 q 151 925 93 883 q 256 958 207 965 q 338 908 301 953 q 366 854 357 886 q 376 799 375 822 q 376 731 376 776 q 374 442 374 600 q 538 665 444 564 q 623 744 588 721 q 693 774 658 768 z "},"l":{"ha":336,"x_min":21,"x_max":324,"o":"m 294 938 q 310 919 304 929 q 319 894 317 910 q 323 864 322 879 q 322 820 324 849 q 317 766 319 792 q 312 693 315 740 q 306 603 308 646 q 289 288 297 453 q 289 261 289 279 q 274 95 282 138 q 238 32 267 53 q 161 10 206 10 q 86 33 117 10 q 56 77 65 50 q 39 160 46 104 q 24 407 21 290 q 29 552 26 500 q 41 680 32 604 q 64 826 50 756 q 85 895 74 868 q 121 940 96 922 q 209 966 157 967 q 294 938 261 965 z "},"m":{"ha":1160,"x_min":10,"x_max":1190,"o":"m 1099 629 q 1088 143 1190 389 q 1038 54 1064 86 q 954 4 1001 11 q 879 26 908 -1 q 842 99 850 54 q 831 193 835 143 q 831 279 826 243 q 831 296 831 292 q 811 213 831 267 q 801 187 807 204 q 792 158 796 169 q 781 131 788 147 q 769 102 775 114 q 756 75 764 90 q 740 49 747 60 q 722 26 732 38 q 700 6 711 14 q 675 -8 689 -1 q 647 -18 661 -15 q 528 12 569 -35 q 488 138 488 58 q 496 231 489 185 q 365 26 465 93 q 217 -15 282 -29 q 50 188 110 7 q 13 416 15 296 q 46 643 10 536 q 119 740 68 700 q 226 764 169 779 q 339 571 332 738 q 313 256 343 465 q 407 565 342 453 q 507 699 451 640 q 561 738 531 722 q 626 758 592 754 q 692 751 660 763 q 799 624 768 725 q 811 640 807 635 q 881 710 851 690 q 963 738 922 735 q 1082 667 1040 742 q 1099 629 1092 650 z "},"n":{"ha":838,"x_min":10,"x_max":829,"o":"m 692 771 q 818 519 810 731 q 771 129 829 278 q 722 47 754 82 q 647 1 689 11 q 528 32 569 -15 q 488 157 488 79 q 496 251 489 204 q 365 46 465 113 q 217 4 282 -8 q 50 208 110 26 q 13 435 15 315 q 46 664 10 556 q 119 759 68 719 q 226 785 169 799 q 339 592 332 758 q 313 276 343 485 q 407 585 342 472 q 507 718 451 660 q 561 758 531 742 q 626 778 592 774 q 692 771 660 782 z "},"o":{"ha":750,"x_min":7,"x_max":746,"o":"m 613 697 q 681 624 653 665 q 719 547 708 583 q 738 473 731 510 q 744 413 746 436 q 743 375 742 390 q 735 327 740 353 q 713 254 729 301 q 660 158 697 207 q 568 75 622 110 q 353 6 460 3 q 131 92 233 7 q 7 364 14 189 q 8 399 7 381 q 16 461 8 418 q 40 543 24 504 q 90 628 56 582 q 171 707 124 674 q 404 782 286 789 q 613 697 515 776 m 467 389 q 435 469 471 440 q 382 490 410 489 q 325 472 353 492 q 283 386 282 442 q 314 318 285 343 q 369 297 340 297 q 424 314 396 296 q 467 389 463 340 z "},"p":{"ha":771,"x_min":19,"x_max":781,"o":"m 563 749 q 692 657 638 717 q 765 525 747 597 q 761 406 781 460 q 696 313 744 358 q 567 232 636 257 q 428 208 507 210 q 285 215 349 207 q 318 79 308 149 q 286 -12 329 4 q 256 -15 276 -15 q 203 -15 238 -15 q 151 -15 168 -15 q 113 -12 125 -15 q 81 -3 94 -10 q 58 15 67 3 q 44 35 50 26 q 36 63 39 44 q 32 89 33 81 q 30 119 31 97 q 29 149 29 142 q 19 339 19 294 q 38 553 22 490 q 51 608 46 590 q 67 647 57 625 q 93 688 78 669 q 247 769 143 746 q 563 749 419 808 m 446 406 q 488 433 469 414 q 513 474 506 451 q 512 518 519 496 q 479 554 504 540 q 465 563 472 560 q 389 566 428 579 q 329 515 350 553 q 318 458 313 485 q 344 419 324 432 q 391 400 364 406 q 446 406 418 394 z "},"q":{"ha":769,"x_min":-8,"x_max":753,"o":"m 735 550 q 753 336 750 488 q 743 146 753 292 q 731 71 740 103 q 696 10 722 39 q 628 -24 669 -18 q 564 -19 606 -25 q 503 -6 522 -14 q 458 38 469 10 q 462 133 451 54 q 488 213 472 211 q 344 206 424 204 q 206 229 265 207 q 76 310 136 254 q 11 403 28 356 q 7 522 -8 457 q 80 655 25 596 q 210 746 135 714 q 525 767 353 806 q 679 685 629 743 q 705 644 694 667 q 721 605 715 622 q 735 550 726 588 m 326 403 q 399 401 363 389 q 449 441 435 413 q 443 513 463 469 q 383 563 422 550 q 307 560 344 576 q 293 551 300 557 q 260 515 268 538 q 260 471 253 493 q 285 430 267 449 q 326 403 303 411 z "},"r":{"ha":642,"x_min":14,"x_max":636,"o":"m 268 786 q 309 789 290 788 q 372 787 328 790 q 450 773 415 783 q 525 737 485 763 q 592 674 565 711 q 626 588 617 635 q 635 519 636 540 q 631 482 633 499 q 597 394 622 435 q 541 330 572 354 q 493 296 510 306 q 465 281 476 286 q 542 178 500 235 q 592 113 585 121 q 603 81 604 94 q 582 44 603 64 q 488 3 549 13 q 417 3 440 -4 q 378 30 396 11 q 349 71 360 49 q 331 114 339 93 q 317 148 324 135 q 306 160 311 161 q 297 128 299 158 q 288 61 296 99 q 257 8 281 24 q 182 0 238 -3 q 78 28 107 6 q 49 76 60 42 q 29 204 39 110 q 21 463 14 360 q 46 615 26 561 q 113 728 75 693 q 268 786 165 775 m 338 414 q 391 454 371 426 q 408 514 411 482 q 372 564 404 546 q 357 572 365 568 q 281 575 319 588 q 222 525 242 563 q 210 468 206 494 q 235 428 215 442 q 283 409 256 415 q 338 414 310 403 z "},"s":{"ha":614,"x_min":8,"x_max":632,"o":"m 486 747 q 566 694 529 726 q 613 628 603 663 q 597 513 632 563 q 485 442 554 450 q 458 443 481 442 q 315 417 315 453 l 319 400 q 328 389 322 394 q 340 379 332 386 q 388 340 368 358 q 426 296 407 321 q 455 247 446 271 q 464 192 464 222 q 450 129 464 161 q 338 19 417 51 q 140 21 246 -18 q 47 69 74 46 q 16 117 24 90 q 19 172 8 143 q 132 203 42 215 q 159 197 139 201 q 196 190 179 193 q 231 188 213 188 q 261 197 249 188 q 276 222 274 206 q 256 265 279 242 q 239 277 247 272 q 219 287 231 282 q 201 296 207 292 q 181 306 192 300 q 158 319 169 313 q 138 329 146 325 q 43 423 78 363 q 11 550 8 483 q 76 696 15 631 q 201 768 119 743 q 321 785 253 785 q 486 747 414 783 z "},"t":{"ha":778,"x_min":-7,"x_max":775,"o":"m 571 371 q 660 348 618 368 q 726 293 701 328 q 744 214 749 253 q 715 136 740 175 q 582 14 667 58 q 440 -24 511 -24 q 260 61 331 -24 q 188 185 213 117 q 150 349 167 236 q 136 493 139 421 q 137 525 136 504 q 138 563 138 546 q 138 599 139 581 q 132 629 136 618 q 87 670 124 647 q 40 703 50 693 q -4 792 -3 747 q 83 885 -7 867 q 103 886 90 886 q 126 888 117 886 q 142 897 136 890 q 153 929 151 906 q 161 960 156 953 q 187 988 171 976 q 217 1003 203 999 q 254 1014 231 1008 q 335 1020 296 1021 q 406 994 375 1019 q 446 925 438 969 q 449 901 447 915 q 456 883 451 885 q 485 879 460 881 q 489 879 488 879 q 569 892 517 879 q 632 907 621 906 q 725 901 696 917 q 772 801 771 875 q 744 704 775 739 q 638 656 714 668 q 588 653 621 654 q 527 653 554 653 q 474 647 500 653 q 440 626 449 640 q 426 578 431 611 q 422 517 422 546 q 424 449 422 488 q 425 399 425 411 q 424 378 424 393 q 424 356 424 363 q 424 328 422 340 q 425 313 424 319 q 425 308 425 311 q 425 306 425 308 q 425 304 425 304 q 429 290 426 297 q 430 288 429 290 q 431 286 431 286 l 431 285 q 432 283 431 285 q 433 281 433 281 l 433 279 l 435 279 q 435 279 435 279 q 439 281 436 279 q 440 281 439 281 q 464 300 454 288 q 471 310 467 303 q 475 316 472 311 q 479 322 478 321 q 499 347 490 339 q 571 371 526 374 z "},"u":{"ha":775,"x_min":11,"x_max":763,"o":"m 731 708 q 760 543 757 653 q 760 428 763 463 q 679 149 743 244 q 542 34 628 74 q 364 3 457 -6 q 151 92 250 11 q 65 199 97 133 q 14 483 11 307 q 17 578 15 547 q 33 660 19 610 q 74 746 46 711 q 124 781 92 768 q 186 789 157 793 q 239 767 218 785 q 269 728 260 750 q 284 673 279 707 q 288 615 289 639 q 286 555 288 592 q 285 506 285 518 q 329 414 285 440 q 429 424 374 388 q 493 571 479 457 q 497 602 494 581 q 500 634 499 624 q 506 663 501 644 q 515 692 510 681 q 528 719 519 704 q 547 747 536 735 q 640 786 583 789 q 731 708 696 782 z "},"v":{"ha":769,"x_min":1,"x_max":775,"o":"m 571 771 q 659 781 611 789 q 736 744 707 774 q 767 689 760 722 q 766 606 775 656 q 747 524 757 557 q 715 425 738 490 q 685 335 697 369 q 642 235 672 300 q 581 130 611 171 q 502 52 550 89 q 401 6 454 15 q 349 3 372 1 q 276 27 311 7 q 213 82 242 47 q 163 148 185 117 q 121 226 142 179 q 90 299 100 274 q 67 364 81 324 q 46 423 53 400 q 26 490 39 446 q 8 565 13 533 q 3 634 4 597 q 12 700 1 671 q 43 747 22 729 q 93 777 63 767 q 156 782 124 788 q 253 717 204 775 q 375 354 354 596 q 474 661 399 524 q 521 735 499 711 q 571 771 543 760 z "},"w":{"ha":910,"x_min":11,"x_max":907,"o":"m 829 781 q 886 740 861 771 q 906 662 907 714 q 893 563 904 610 q 856 431 882 517 q 749 127 789 213 q 654 18 710 42 q 590 8 619 3 q 483 106 525 18 q 463 168 468 135 q 456 218 457 201 q 450 235 454 235 q 441 219 446 236 q 425 169 436 203 q 396 106 414 135 q 380 80 388 90 q 356 51 372 69 q 320 22 340 33 q 278 6 300 10 q 215 13 247 1 q 123 101 163 32 q 63 251 83 169 q 29 426 42 333 q 14 577 17 519 q 11 663 11 635 q 28 729 13 700 q 71 774 44 758 q 172 781 117 800 q 228 720 206 769 q 261 610 251 671 q 276 488 271 549 q 283 388 281 428 q 290 347 286 347 q 298 374 293 347 q 315 456 303 400 q 346 563 328 511 q 361 603 354 588 q 382 636 368 619 q 414 660 396 653 q 476 660 447 674 q 526 575 508 644 q 560 354 551 471 q 639 657 575 524 q 742 774 683 750 q 829 781 789 793 z "},"x":{"ha":782,"x_min":-1,"x_max":785,"o":"m 767 756 q 781 711 778 735 q 757 604 785 668 q 701 499 738 557 q 607 369 664 438 q 592 350 603 364 q 668 238 649 269 q 713 151 696 192 q 733 72 732 106 q 706 8 733 31 q 603 -8 665 -25 q 479 68 554 6 q 393 142 433 106 q 311 67 342 92 q 235 8 269 29 q 161 -24 193 -18 q 89 -6 117 -31 q 60 93 53 29 q 114 226 67 143 q 193 351 154 294 q 58 549 111 453 q 1 693 6 642 q 15 757 -1 729 q 64 797 32 785 q 106 803 83 804 q 208 764 151 800 q 306 690 251 736 q 394 603 349 653 q 517 714 456 665 q 649 796 601 783 q 717 795 685 806 q 767 756 749 785 z "},"y":{"ha":728,"x_min":18,"x_max":717,"o":"m 493 751 q 585 790 528 785 q 678 763 643 796 q 714 667 717 722 q 669 236 696 379 q 563 38 643 97 q 462 -8 525 8 q 342 -24 399 -24 q 290 -24 314 -24 q 57 51 119 -19 q 28 119 33 79 q 44 190 22 160 q 138 214 71 224 q 195 201 157 211 q 260 183 233 190 q 325 173 288 176 q 382 182 363 169 q 394 228 428 201 q 340 247 369 247 q 167 260 239 244 q 43 331 78 279 q 19 450 18 369 q 32 633 24 575 q 40 680 36 664 q 51 719 43 696 q 76 756 60 742 q 114 779 92 769 q 201 783 151 799 q 261 726 250 768 q 268 674 268 704 q 266 607 268 643 q 264 553 264 571 q 276 492 264 510 q 367 451 299 453 q 389 451 378 450 q 409 453 400 451 q 426 459 418 454 q 440 474 435 464 q 463 582 461 501 q 462 611 463 593 q 460 642 461 629 q 461 671 460 654 q 465 700 463 688 q 475 726 468 713 q 493 751 482 740 z "},"z":{"ha":747,"x_min":8,"x_max":740,"o":"m 585 769 q 626 765 611 767 q 662 754 642 763 q 696 731 682 746 q 739 604 740 686 q 690 447 738 526 q 656 397 676 421 q 621 360 635 374 q 579 324 607 347 q 472 247 529 281 q 592 243 533 253 q 671 214 654 233 q 688 122 692 189 q 667 47 683 68 q 578 15 644 21 q 413 11 497 8 q 345 13 382 13 q 278 13 308 13 q 211 13 249 13 q 77 18 107 14 q 33 42 47 22 q 14 146 13 69 q 25 217 15 188 q 62 266 35 244 q 135 306 89 288 q 233 340 182 324 q 358 385 283 357 q 497 446 432 414 q 558 490 561 479 q 540 494 551 494 q 494 490 529 494 q 423 482 458 486 q 331 474 388 478 q 218 469 274 469 q 100 477 138 468 q 44 510 63 486 q 24 654 8 558 q 47 729 32 706 q 108 765 67 757 q 260 779 149 774 q 585 769 407 786 z "},"{":{"ha":736,"x_min":65,"x_max":679,"o":"m 414 869 q 394 859 400 865 q 381 838 388 853 q 372 801 372 819 q 376 765 371 783 q 386 731 381 747 q 400 695 392 715 q 413 660 408 675 q 418 537 429 597 q 371 424 407 476 q 392 239 413 350 q 382 193 386 204 q 381 183 381 188 q 415 164 390 174 q 492 156 443 153 q 499 156 493 156 q 508 158 504 157 q 513 158 513 158 q 533 163 524 160 q 644 117 606 179 q 654 10 679 63 q 589 -39 636 -28 q 244 26 379 -87 q 178 233 156 100 q 190 303 189 300 q 101 331 138 296 q 69 417 65 367 q 119 494 72 467 q 171 515 143 510 q 214 596 219 543 q 212 600 214 594 q 208 613 210 606 q 204 622 206 621 q 192 652 203 628 q 178 690 181 676 q 165 824 158 754 q 208 957 174 896 q 301 1049 243 1018 q 369 1073 333 1065 q 446 1080 404 1081 q 516 1076 488 1079 q 592 1065 544 1072 q 653 1018 632 1060 q 664 938 675 976 q 617 876 653 894 q 536 864 581 857 q 414 869 449 878 z "},"|":{"ha":308,"x_min":35,"x_max":274,"o":"m 271 853 q 274 110 272 606 q 249 37 274 67 q 190 0 225 7 q 121 0 156 -7 q 62 37 86 7 q 38 110 38 67 q 35 853 36 604 q 48 909 35 885 q 82 947 61 933 q 128 965 103 960 q 178 965 153 971 q 224 947 203 960 q 258 909 244 933 q 271 853 271 885 z "},"}":{"ha":738,"x_min":63,"x_max":671,"o":"m 617 511 q 668 432 665 482 q 635 347 671 382 q 546 319 599 311 q 552 281 547 306 q 558 250 557 257 q 493 43 581 117 q 149 -22 357 -71 q 74 48 86 -8 q 102 149 63 104 q 204 179 142 193 q 225 175 213 176 q 246 172 229 174 q 322 181 293 169 q 350 196 335 186 q 356 199 354 199 q 354 210 356 204 q 344 256 350 224 q 365 442 324 367 q 319 553 331 493 q 325 676 308 614 q 337 712 329 692 q 351 748 344 732 q 361 782 357 764 q 365 818 365 800 q 357 854 364 836 q 343 876 350 869 q 322 886 336 882 q 201 881 288 894 q 121 892 157 874 q 72 954 85 911 q 70 994 67 972 q 83 1033 74 1015 q 108 1065 92 1051 q 146 1082 125 1079 q 248 1095 210 1092 q 343 1092 286 1099 q 440 1063 400 1086 q 531 970 497 1029 q 571 840 564 911 q 557 700 579 767 q 544 667 553 688 q 532 638 535 646 q 524 608 524 617 q 565 532 519 558 q 617 511 593 526 z "},"~":{"ha":1072,"x_min":33,"x_max":1044,"o":"m 976 756 q 1029 710 1014 743 q 1035 638 1044 676 q 974 518 1021 574 q 865 431 926 463 q 732 394 803 400 q 599 422 661 388 q 501 520 557 446 q 408 618 444 594 q 310 633 353 654 q 242 567 268 613 q 210 468 217 522 q 208 449 208 460 q 206 431 207 438 q 204 417 206 425 q 199 403 203 408 q 190 393 196 399 q 176 385 185 388 q 156 379 168 382 q 78 387 107 371 q 42 436 50 403 q 35 507 33 469 q 50 583 38 544 q 86 667 63 628 q 145 738 110 707 q 222 788 181 769 q 356 810 283 813 q 488 781 428 808 q 538 744 511 769 q 584 691 564 718 q 630 635 604 664 q 679 590 656 607 q 735 566 703 572 q 800 578 768 560 q 839 617 824 589 q 861 672 854 644 q 881 724 868 699 q 915 758 894 750 q 976 756 935 767 z "},"":{"ha":501,"x_min":0,"x_max":0,"o":""},"":{"ha":818,"x_min":26,"x_max":786,"o":"m 760 342 q 783 253 786 300 q 753 168 781 206 q 488 36 674 44 q 488 -6 488 22 q 488 -47 488 -33 q 476 -87 486 -69 q 448 -115 465 -104 q 408 -126 431 -125 q 354 -103 378 -128 q 331 -47 331 -79 q 332 1 332 -32 q 333 50 332 33 q 173 127 242 72 q 68 267 104 182 q 36 461 26 358 q 107 643 46 564 q 346 797 196 756 q 350 972 347 857 q 360 1011 350 993 q 389 1040 371 1029 q 428 1050 407 1050 q 482 1027 458 1051 q 506 972 506 1003 q 504 897 506 947 q 503 819 503 846 q 706 753 654 824 q 727 709 719 732 q 735 672 735 686 l 736 660 q 711 584 736 619 q 633 529 686 549 q 525 519 603 518 q 419 500 447 521 q 357 417 367 469 q 378 335 349 369 q 457 300 408 300 q 508 313 482 300 q 562 347 533 326 q 607 375 590 367 q 690 385 643 394 q 760 342 736 375 z "},"":{"ha":840,"x_min":35,"x_max":806,"o":"m 582 221 q 513 221 536 221 q 484 189 503 210 q 456 158 465 168 q 643 157 518 157 q 702 133 678 157 q 728 74 726 108 q 716 33 728 53 q 685 1 704 13 q 643 -10 665 -10 q 455 -9 581 -10 q 265 -8 329 -8 q 219 6 240 -8 q 189 43 199 19 q 207 135 168 93 l 288 221 l 114 221 q 58 244 81 221 q 35 301 35 268 q 58 358 35 335 q 114 381 82 381 l 117 381 q 126 382 121 382 l 210 382 q 188 417 197 397 q 140 573 147 490 q 161 733 132 656 q 232 857 188 801 q 325 943 268 903 q 494 1006 394 993 q 650 979 574 1015 q 739 906 701 956 q 794 797 776 857 q 790 738 804 765 q 748 699 775 711 q 688 687 721 686 q 632 707 654 688 q 599 743 621 715 q 561 781 578 771 q 510 792 538 793 q 458 775 483 790 q 390 696 419 751 q 361 593 360 639 q 376 526 363 561 q 424 443 396 478 q 486 382 461 393 l 488 381 l 725 381 q 782 358 758 381 q 806 301 806 335 q 782 244 806 268 q 725 221 758 221 l 713 221 l 582 221 z "},"":{"ha":1040,"x_min":35,"x_max":1006,"o":"m 1004 781 q 985 723 1003 753 q 915 635 968 693 q 810 525 881 597 l 896 525 q 950 502 928 525 q 974 447 972 479 q 964 408 975 426 q 935 380 953 390 q 896 369 917 369 l 731 369 l 650 369 q 639 347 643 360 l 636 339 l 896 339 q 950 316 928 339 q 974 261 972 293 q 951 207 975 231 q 896 183 928 183 l 731 183 l 625 183 q 626 68 629 97 q 522 -36 621 -21 q 386 -8 431 -50 q 351 69 357 21 q 347 185 344 117 l 143 185 q 89 208 111 185 q 65 263 67 231 q 88 317 64 293 q 143 340 113 340 l 310 340 l 350 340 q 343 361 347 353 q 340 366 342 363 q 338 371 339 369 l 143 371 q 89 394 111 371 q 65 449 67 417 q 75 488 64 469 q 105 516 86 506 q 143 526 124 526 l 210 526 q 103 656 119 636 q 35 786 38 739 q 89 914 35 875 q 222 924 146 953 q 269 894 247 914 q 304 858 292 875 q 339 808 317 842 q 377 752 350 793 q 436 664 404 711 q 501 568 468 617 q 711 821 603 696 q 760 874 740 856 q 807 910 779 893 q 865 928 835 926 q 963 894 925 928 q 993 848 982 875 q 1005 806 1004 821 q 1004 781 1006 792 z "},"":{"ha":936,"x_min":35,"x_max":906,"o":"m 235 831 q 231 825 233 828 q 229 825 231 825 q 235 831 233 829 m 810 838 q 901 594 901 722 q 803 332 906 463 q 607 176 719 226 q 467 140 539 147 q 335 149 404 133 q 214 199 269 163 q 111 297 157 238 q 35 551 35 404 q 108 828 35 694 q 293 990 182 963 q 596 981 446 1029 q 810 838 731 938 m 793 568 q 790 628 796 604 q 771 699 785 665 q 739 754 756 731 q 731 768 733 764 q 728 771 729 769 q 725 774 726 772 q 701 800 718 783 q 675 824 685 817 q 671 828 672 826 q 656 839 661 835 q 594 872 626 858 q 490 900 542 892 q 353 899 419 907 q 339 897 347 899 q 328 893 336 896 q 300 885 314 890 q 282 876 285 878 q 271 868 278 874 q 268 868 269 868 q 232 831 249 851 l 229 828 l 226 825 q 219 814 225 821 q 204 789 211 800 q 181 740 196 774 q 144 611 153 672 q 143 511 139 557 q 168 422 150 467 q 193 375 179 396 q 201 363 199 367 q 203 360 201 361 q 206 357 204 358 l 208 354 q 213 349 210 353 q 216 345 214 347 q 220 341 218 343 q 224 338 222 339 q 246 315 235 324 q 256 308 249 313 l 254 310 q 249 313 251 311 q 253 310 251 311 q 258 306 256 308 q 263 303 260 304 q 308 276 282 290 q 385 257 350 261 q 471 257 428 251 q 554 279 508 263 q 624 319 593 299 q 633 325 626 321 q 642 332 639 329 q 646 335 643 333 q 647 336 646 335 q 650 339 649 338 q 682 367 665 350 q 711 397 692 376 l 725 414 q 725 415 725 415 l 731 424 q 774 497 756 457 q 793 568 789 539 m 644 521 q 678 491 668 514 q 683 443 689 468 q 610 369 671 400 q 461 349 542 338 q 333 407 375 363 q 293 474 307 435 q 279 563 279 510 q 329 715 282 654 q 461 801 386 785 q 621 785 553 821 q 660 753 646 771 q 667 678 689 718 q 642 651 658 660 q 614 643 626 643 q 578 644 601 643 q 546 646 556 646 q 486 623 514 644 q 454 569 458 601 q 467 522 451 542 q 518 499 485 503 q 578 513 538 497 q 644 521 619 528 z "},"":{"ha":0,"x_min":0,"x_max":0,"o":""},"":{"ha":936,"x_min":35,"x_max":906,"o":"m 232 832 q 235 836 235 835 q 231 831 232 831 l 232 832 m 811 843 q 901 601 903 728 q 803 339 906 469 q 607 183 719 232 q 467 146 539 154 q 335 154 404 139 q 214 204 269 169 q 111 304 157 243 q 35 557 35 411 q 108 835 35 700 q 293 996 182 968 q 596 986 447 1035 q 811 843 732 943 m 794 572 q 792 632 797 610 q 772 703 786 671 q 740 758 757 735 q 735 766 739 761 q 731 772 732 771 q 729 776 731 774 q 726 778 728 778 q 703 804 719 788 q 676 828 686 821 q 672 832 674 832 q 657 843 663 840 q 596 876 628 863 q 490 904 543 896 q 353 904 419 913 q 339 901 349 904 q 329 899 336 900 q 301 890 315 896 q 283 881 286 882 q 271 874 279 879 q 269 872 271 874 q 232 835 249 856 l 229 832 l 228 829 q 221 818 226 825 q 206 794 211 806 q 182 744 196 778 q 146 615 154 676 q 144 515 139 561 q 168 426 151 472 q 193 381 181 401 q 201 367 199 371 q 204 365 203 367 q 207 361 206 363 l 210 358 q 214 353 210 357 q 217 349 215 351 q 221 345 219 347 q 224 342 222 343 q 247 319 236 328 q 256 313 250 318 l 254 314 q 250 317 253 315 q 257 313 253 315 q 263 308 261 310 q 310 282 282 294 q 386 261 351 267 q 472 261 429 256 q 554 285 510 267 q 625 324 594 303 q 634 331 628 326 q 643 336 640 335 q 646 339 644 338 q 649 342 647 340 q 651 343 650 343 q 683 371 667 354 q 711 401 693 381 l 725 418 q 726 419 725 418 l 732 428 q 775 501 756 463 q 794 572 790 543 m 511 831 q 600 781 561 818 q 650 694 639 743 q 653 621 660 654 q 615 557 644 581 q 542 529 592 539 q 603 485 581 511 q 626 432 626 458 q 613 394 621 404 q 551 381 594 375 q 496 415 525 386 q 444 500 461 450 q 435 439 444 464 q 400 390 421 403 q 360 380 382 379 q 322 390 338 381 q 288 519 288 413 q 289 597 288 569 q 297 667 290 625 q 319 739 303 708 q 363 792 336 769 q 447 832 403 825 q 511 831 475 839 m 540 647 q 538 688 544 667 q 513 719 531 708 q 464 720 489 731 q 425 689 439 710 q 415 626 404 656 q 448 592 425 604 q 494 588 471 581 q 514 599 506 592 q 527 613 522 606 q 535 628 532 621 q 540 641 539 636 q 540 647 540 646 z "},"":{"ha":821,"x_min":31,"x_max":789,"o":"m 751 275 q 781 224 774 251 q 783 174 789 197 q 764 128 778 150 q 728 92 750 106 q 683 74 706 79 q 633 76 660 68 q 585 107 607 85 q 498 197 556 138 q 411 286 440 257 q 325 178 367 233 q 252 124 293 138 q 164 133 211 110 q 108 206 124 157 q 119 294 93 254 q 247 457 181 378 q 203 503 228 478 q 158 549 178 529 q 113 595 138 569 q 68 642 89 621 q 39 692 47 665 q 37 742 31 718 q 57 789 43 767 q 92 824 71 811 q 138 843 114 838 q 188 840 161 849 q 236 810 214 832 q 407 632 321 721 q 544 763 472 699 q 628 797 581 796 q 711 763 675 797 q 745 679 744 731 q 711 596 746 628 q 571 463 642 535 q 662 368 601 431 q 751 275 722 306 z "},"":{"ha":1031,"x_min":29,"x_max":1000,"o":"m 897 568 q 952 544 928 565 q 988 494 976 524 q 994 435 1000 464 q 949 360 988 386 q 861 336 910 333 q 164 307 521 361 q 80 332 117 300 q 36 411 43 364 q 61 494 29 457 q 140 539 93 532 q 897 568 508 596 m 501 275 q 610 273 556 296 q 686 194 664 250 q 684 86 707 140 q 606 10 661 32 q 497 12 550 -11 q 421 90 443 35 q 413 164 408 128 q 442 231 418 200 q 501 275 465 261 m 356 717 q 357 826 333 772 q 435 901 381 879 q 509 909 474 914 q 575 881 544 904 q 619 821 606 857 q 618 713 642 767 q 540 637 594 658 q 431 639 485 615 q 356 717 376 663 z "},"":{"ha":792,"x_min":33,"x_max":758,"o":"m 757 364 q 735 309 758 332 q 681 288 711 286 q 475 286 611 286 q 524 254 494 271 q 600 232 564 238 q 650 229 628 228 q 719 197 686 231 q 747 119 746 169 q 719 42 749 76 q 650 8 690 10 q 488 36 563 6 q 331 136 401 68 q 289 185 311 154 q 242 261 257 228 q 232 285 233 281 l 113 285 q 58 308 81 285 q 35 364 36 332 q 58 418 33 394 q 113 442 82 442 l 197 442 q 197 447 197 443 q 196 453 196 451 q 201 542 194 496 l 113 542 q 58 565 81 542 q 35 619 36 588 q 58 674 33 651 q 113 697 82 697 l 243 697 q 263 744 256 729 q 381 915 313 850 q 589 1046 471 1004 q 664 1035 625 1057 q 708 968 694 1017 q 697 883 719 925 q 640 832 679 846 q 604 818 625 828 q 524 765 565 800 q 467 700 493 738 q 466 699 467 700 q 465 697 465 699 q 678 699 535 699 q 717 688 700 699 q 745 659 735 676 q 756 621 756 642 q 751 591 757 606 q 733 566 744 576 q 708 549 722 556 q 678 543 693 543 q 538 542 632 543 q 397 542 444 542 q 390 501 393 518 q 390 440 389 471 q 535 441 439 440 q 679 442 631 442 q 733 419 711 442 q 757 364 756 396 z "},"":{"ha":1014,"x_min":29,"x_max":981,"o":"m 250 968 q 458 929 435 969 q 469 878 472 908 q 450 833 467 849 q 385 826 432 817 q 321 821 339 835 q 308 794 310 813 q 306 710 306 776 q 304 629 304 663 q 299 556 303 579 q 276 521 294 532 q 226 513 254 504 q 190 546 206 519 q 178 615 176 571 q 191 697 181 660 q 204 772 201 735 q 192 821 207 810 q 135 821 179 832 q 68 825 92 810 q 38 874 46 842 q 42 929 29 906 q 99 960 56 954 q 250 968 143 967 m 960 899 q 976 762 972 831 q 980 661 981 693 q 976 621 979 629 q 965 544 972 567 q 943 513 958 521 q 913 508 932 506 q 882 519 894 510 q 864 544 876 524 q 850 582 854 564 q 847 689 840 626 q 808 607 838 643 q 794 592 799 597 q 782 578 790 586 q 765 567 774 571 q 747 564 757 564 q 714 574 731 563 q 689 594 697 585 q 665 622 681 604 q 632 688 644 651 q 639 599 639 646 q 629 546 638 564 q 604 513 619 522 q 549 511 576 496 q 513 586 521 525 q 540 906 492 746 q 579 960 556 951 q 622 954 600 967 q 654 924 635 946 q 744 769 710 853 q 847 929 806 872 q 890 963 868 956 q 928 961 914 968 q 960 899 953 949 z "}}}
